<svg width="18" height="18" viewBox="0 0 18 18" fill="none" xmlns="http://www.w3.org/2000/svg">
<path d="M17.2969 8.29688H9.70312V0.703125C9.70312 0.314789 9.38834 0 9 0C8.61166 0 8.29688 0.314789 8.29688 0.703125V8.29688H0.703125C0.314789 8.29688 0 8.61166 0 9C0 9.38834 0.314789 9.70312 0.703125 9.70312H8.29688V17.2969C8.29688 17.6852 8.61166 18 9 18C9.38834 18 9.70312 17.6852 9.70312 17.2969V9.70312H17.2969C17.6852 9.70312 18 9.38834 18 9C18 8.61166 17.6852 8.29688 17.2969 8.29688Z" fill="#333333"/>
</svg>
