<svg width="18" height="18" viewBox="0 0 18 18" fill="none" xmlns="http://www.w3.org/2000/svg">
<g clip-path="url(#clip0)">
<path d="M17.2969 8.19687H9.80313V0.703125C9.80313 0.259561 9.44356 -0.1 9 -0.1C8.55644 -0.1 8.19687 0.259561 8.19687 0.703125V8.19687H0.703125C0.259561 8.19687 -0.1 8.55644 -0.1 9C-0.1 9.44356 0.259561 9.80313 0.703125 9.80313H8.19687V17.2969C8.19687 17.7404 8.55644 18.1 9 18.1C9.44356 18.1 9.80313 17.7404 9.80313 17.2969V9.80313H17.2969C17.7404 9.80313 18.1 9.44356 18.1 9C18.1 8.55644 17.7404 8.19687 17.2969 8.19687Z" fill="#F3F3F3" stroke="#F3F3F3" stroke-width="0.2"/>
</g>
<defs>
<clipPath id="clip0">
<rect width="18" height="18" fill="white"/>
</clipPath>
</defs>
</svg>
