<svg width="18" height="18" viewBox="0 0 18 18" fill="none" xmlns="http://www.w3.org/2000/svg">
<path d="M9.65312 8.29688V8.34688H9.70312H17.2969C17.6576 8.34688 17.95 8.63928 17.95 9C17.95 9.36072 17.6576 9.65312 17.2969 9.65312H9.70312H9.65312V9.70312V17.2969C9.65312 17.6576 9.36072 17.95 9 17.95C8.63928 17.95 8.34688 17.6576 8.34688 17.2969V9.70312V9.65312H8.29688H0.703125C0.342403 9.65312 0.05 9.36072 0.05 9C0.05 8.63928 0.342403 8.34688 0.703125 8.34688H8.29688H8.34688V8.29688V0.703125C8.34688 0.342403 8.63928 0.05 9 0.05C9.36072 0.05 9.65312 0.342403 9.65312 0.703125V8.29688Z" fill="#808080" stroke="white" stroke-width="0.1"/>
</svg>
