<svg width="25" height="25" viewBox="0 0 25 25" fill="none" xmlns="http://www.w3.org/2000/svg">
<g clip-path="url(#clip0)">
<path d="M20.0684 12.8351V10.498C20.0684 7.08877 17.8023 4.19917 14.6973 3.25537V2.19727C14.6973 0.985693 13.7116 0 12.5001 0C11.2885 0 10.3028 0.985693 10.3028 2.19727V3.25537C7.19781 4.19917 4.9317 7.08872 4.9317 10.498V12.8351C4.9317 15.8298 3.79019 18.6694 1.71749 20.831C1.51436 21.0428 1.45728 21.3553 1.57242 21.6252C1.68756 21.8952 1.95269 22.0703 2.24615 22.0703H8.91163C9.25186 23.7398 10.7316 25 12.5001 25C14.2686 25 15.7482 23.7398 16.0885 22.0703H22.754C23.0474 22.0703 23.3125 21.8952 23.4276 21.6252C23.5428 21.3553 23.4857 21.0428 23.2826 20.831C21.2099 18.6694 20.0684 15.8297 20.0684 12.8351V12.8351ZM11.7676 2.19727C11.7676 1.79341 12.0962 1.46484 12.5001 1.46484C12.9039 1.46484 13.2325 1.79341 13.2325 2.19727V2.96523C12.9914 2.94199 12.7471 2.92969 12.5001 2.92969C12.253 2.92969 12.0087 2.94199 11.7676 2.96523V2.19727ZM12.5001 23.5352C11.5452 23.5352 10.7311 22.9228 10.4288 22.0703H14.5713C14.269 22.9228 13.4549 23.5352 12.5001 23.5352V23.5352ZM3.82476 20.6055C5.49278 18.3695 6.39654 15.6637 6.39654 12.8351V10.498C6.39654 7.13257 9.13458 4.39453 12.5001 4.39453C15.8655 4.39453 18.6036 7.13257 18.6036 10.498V12.8351C18.6036 15.6637 19.5073 18.3695 21.1754 20.6055H3.82476Z" fill="#F3F3F3"/>
<path d="M22.0219 10.498C22.0219 10.9024 22.3498 11.2304 22.7543 11.2304C23.1588 11.2304 23.4867 10.9024 23.4867 10.498C23.4867 7.56339 22.3439 4.80445 20.2689 2.7294C19.9829 2.44341 19.5191 2.44337 19.2331 2.7294C18.947 3.01544 18.947 3.47916 19.2331 3.76519C21.0315 5.56358 22.0219 7.95465 22.0219 10.498V10.498Z" fill="#F3F3F3"/>
<path d="M2.24609 11.2306C2.65059 11.2306 2.97852 10.9027 2.97852 10.4982C2.97852 7.95491 3.96894 5.56384 5.76728 3.76545C6.05332 3.47942 6.05332 3.0157 5.76728 2.72966C5.4813 2.44363 5.01753 2.44363 4.73149 2.72966C2.65645 4.80471 1.51367 7.5636 1.51367 10.4982C1.51367 10.9027 1.8416 11.2306 2.24609 11.2306V11.2306Z" fill="#F3F3F3"/>
</g>
<defs>
<clipPath id="clip0">
<rect width="25" height="25" fill="white"/>
</clipPath>
</defs>
</svg>
