<svg width="28" height="28" viewBox="0 0 28 28" fill="none" xmlns="http://www.w3.org/2000/svg">
<path d="M22.2031 3.33594H18.1016V2.46094C18.1016 1.10398 16.9976 0 15.6406 0H12.3594C11.0024 0 9.89844 1.10398 9.89844 2.46094V3.33594H5.79688C4.43991 3.33594 3.33594 4.43991 3.33594 5.79688V7.4375C3.33594 7.89053 3.70322 8.25781 4.15625 8.25781H5.04186L6.49463 25.7434C6.60013 27.0088 7.67736 28 8.94709 28H19.0529C20.3226 28 21.3999 27.0088 21.5054 25.7432L22.9581 8.25781H23.8438C24.2968 8.25781 24.6641 7.89053 24.6641 7.4375V5.79688C24.6641 4.43991 23.5601 3.33594 22.2031 3.33594ZM11.5391 2.46094C11.5391 2.00862 11.9071 1.64062 12.3594 1.64062H15.6406C16.0929 1.64062 16.4609 2.00862 16.4609 2.46094V3.33594H11.5391V2.46094ZM19.8704 25.6071C19.8352 26.029 19.4761 26.3594 19.0529 26.3594H8.94709C8.52387 26.3594 8.16473 26.029 8.12963 25.6074L6.68817 8.25781H21.3118L19.8704 25.6071ZM23.0234 6.61719H4.97656V5.79688C4.97656 5.34455 5.34455 4.97656 5.79688 4.97656H22.2031C22.6554 4.97656 23.0234 5.34455 23.0234 5.79688V6.61719Z" fill="#F3F3F3"/>
<path d="M14 9.89844C13.547 9.89844 13.1797 10.2657 13.1797 10.7188V23.8984C13.1797 24.3515 13.547 24.7188 14 24.7188C14.453 24.7188 14.8203 24.3515 14.8203 23.8984V10.7188C14.8203 10.2657 14.453 9.89844 14 9.89844Z" fill="#F3F3F3"/>
<path d="M17.2812 9.89844C16.8282 9.89844 16.4609 10.2657 16.4609 10.7188V23.8984C16.4609 24.3515 16.8282 24.7188 17.2812 24.7188C17.7343 24.7188 18.1016 24.3515 18.1016 23.8984V10.7188C18.1016 10.2657 17.7343 9.89844 17.2812 9.89844Z" fill="#F3F3F3"/>
<path d="M10.7188 9.89844C10.2657 9.89844 9.89844 10.2657 9.89844 10.7188V23.8984C9.89844 24.3515 10.2657 24.7188 10.7188 24.7188C11.1718 24.7188 11.5391 24.3515 11.5391 23.8984V10.7188C11.5391 10.2657 11.1718 9.89844 10.7188 9.89844Z" fill="#F3F3F3"/>
</svg>
