<svg width="24" height="25" viewBox="0 0 24 25" fill="none" xmlns="http://www.w3.org/2000/svg">
<g clip-path="url(#clip0)">
<path d="M21.1875 24.7537H2.8125C1.2616 24.7537 0 23.4921 0 21.9412V3.56616C0 2.01526 1.2616 0.753662 2.8125 0.753662H21.1875C22.7384 0.753662 24 2.01526 24 3.56616V21.9412C24 23.4921 22.7384 24.7537 21.1875 24.7537ZM2.8125 2.62866C2.29559 2.62866 1.875 3.04926 1.875 3.56616V21.9412C1.875 22.4581 2.29559 22.8787 2.8125 22.8787H21.1875C21.7044 22.8787 22.125 22.4581 22.125 21.9412V3.56616C22.125 3.04926 21.7044 2.62866 21.1875 2.62866H2.8125Z" fill="#333333"/>
</g>
<defs>
<clipPath id="clip0">
<rect y="0.753662" width="24" height="24" fill="white"/>
</clipPath>
</defs>
</svg>
