<svg width="19" height="20" viewBox="0 0 19 20" fill="none" xmlns="http://www.w3.org/2000/svg">
<g clip-path="url(#clip0)">
<path d="M16.566 19.44H2.23354C1.02384 19.44 0.0397949 18.4559 0.0397949 17.2462V2.91372C0.0397949 1.70402 1.02384 0.719971 2.23354 0.719971H16.566C17.7757 0.719971 18.7598 1.70402 18.7598 2.91372V17.2462C18.7598 18.4559 17.7757 19.44 16.566 19.44ZM2.23354 2.18247C1.83036 2.18247 1.50229 2.51053 1.50229 2.91372V17.2462C1.50229 17.6494 1.83036 17.9775 2.23354 17.9775H16.566C16.9692 17.9775 17.2973 17.6494 17.2973 17.2462V2.91372C17.2973 2.51053 16.9692 2.18247 16.566 2.18247H2.23354ZM15.7945 6.25348L14.7049 5.27771L7.94215 12.8303L4.01711 9.09921L3.0095 10.1591L8.02656 14.9285L15.7945 6.25348Z" fill="url(#paint0_linear)"/>
</g>
<defs>
<linearGradient id="paint0_linear" x1="0.0397949" y1="10.08" x2="18.7598" y2="10.08" gradientUnits="userSpaceOnUse">
<stop stop-color="#A32CDF"/>
<stop offset="1" stop-color="#4F4FD7"/>
</linearGradient>
<clipPath id="clip0">
<rect x="0.0397949" y="0.719971" width="18.72" height="18.72" fill="white"/>
</clipPath>
</defs>
</svg>
