<svg width="24" height="24" viewBox="0 0 24 24" fill="none" xmlns="http://www.w3.org/2000/svg">
<path d="M21.1875 24H2.8125C1.2616 24 0 22.7384 0 21.1875V2.8125C0 1.2616 1.2616 0 2.8125 0H21.1875C22.7384 0 24 1.2616 24 2.8125V21.1875C24 22.7384 22.7384 24 21.1875 24ZM2.8125 1.875C2.29559 1.875 1.875 2.29559 1.875 2.8125V21.1875C1.875 21.7044 2.29559 22.125 2.8125 22.125H21.1875C21.7044 22.125 22.125 21.7044 22.125 21.1875V2.8125C22.125 2.29559 21.7044 1.875 21.1875 1.875H2.8125ZM20.1984 7.09424L18.8015 5.84326L10.1312 15.5261L5.09912 10.7426L3.80731 12.1014L10.2394 18.2161L20.1984 7.09424Z" fill="#333333"/>
</svg>
