<svg width="17" height="17" viewBox="0 0 17 17" fill="none" xmlns="http://www.w3.org/2000/svg">
<circle cx="8.5" cy="8.5" r="8.4" fill="white" stroke="#333333" stroke-width="0.2"/>
<g clip-path="url(#clip0)">
<path d="M9.13269 8.50097L12.619 5.01468C12.7937 4.83997 12.7937 4.55671 12.619 4.38201C12.4443 4.2073 12.161 4.2073 11.9863 4.38201L8.49999 7.8683L5.0137 4.38201C4.83899 4.2073 4.55573 4.2073 4.38104 4.38201C4.20634 4.55673 4.20632 4.83998 4.38104 5.01468L7.86732 8.50097L4.38104 11.9873C4.20632 12.162 4.20632 12.4452 4.38104 12.6199C4.55575 12.7946 4.83901 12.7946 5.0137 12.6199L8.49999 9.13364L11.9863 12.6199C12.161 12.7946 12.4442 12.7946 12.6189 12.6199C12.7936 12.4452 12.7936 12.162 12.6189 11.9873L9.13269 8.50097Z" fill="#333333"/>
</g>
<defs>
<clipPath id="clip0">
<rect width="8.5" height="8.5" fill="white" transform="translate(4.25 4.25)"/>
</clipPath>
</defs>
</svg>
