<svg width="20" height="20" viewBox="0 0 20 20" fill="none" xmlns="http://www.w3.org/2000/svg">
<g clip-path="url(#clip0)">
<path d="M6.35951 11.7852L0.759377 17.3853C0.236458 17.9082 0.236458 18.756 0.759377 19.2789C1.2823 19.8018 2.13008 19.8018 2.653 19.2789L8.25313 13.6788L7.94704 12.0912L6.35951 11.7852Z" fill="#3A484A"/>
<path d="M13.8218 4.32325L11.1747 7.98842L7.50952 10.6355L6.35962 11.7854L9.89447 15.3203C10.315 15.7408 10.9969 15.7408 11.4176 15.3203L17.894 8.84367C20.2669 6.47093 20.2669 2.62372 17.894 0.250977L13.8218 4.32325Z" fill="#D4D4D4"/>
<path d="M17.9327 0.290527C19.5298 2.65381 19.2826 5.89173 17.1906 7.98387L10.6359 14.5386C10.2152 14.9593 9.53333 14.9593 9.11279 14.5386L9.89435 15.3202C10.3149 15.7407 10.9968 15.7407 11.4175 15.3202L17.8939 8.84355C20.2537 6.48393 20.2664 2.66632 17.9327 0.290527Z" fill="#B1B1B1"/>
<path d="M7.50952 10.6355L14.5954 17.7215C14.9441 18.0702 15.5092 18.0702 15.8579 17.7215C16.2066 17.3729 16.2066 16.8077 15.8579 16.459L14.2901 14.8912C13.9414 14.5425 13.9414 13.9773 14.2901 13.6288C14.6386 13.2802 15.2039 13.2802 15.5524 13.6288L16.1429 14.2193C16.4916 14.5678 17.0568 14.5678 17.4055 14.2193C17.7541 13.8707 17.7541 13.3055 17.4055 12.9568L13.109 8.6604C12.7604 8.31174 12.7604 7.74655 13.109 7.39804C13.4577 7.04938 14.0229 7.04938 14.3714 7.39804L15.1656 8.19211C15.5143 8.54077 16.0795 8.54077 16.428 8.19211C16.7766 7.84345 16.7766 7.27826 16.428 6.9296L13.8218 4.32324L7.50952 10.6355Z" fill="#FF6668"/>
<path d="M3.35288 17.1469C3.35288 17.4012 3.14658 17.6075 2.89221 17.6075C2.6377 17.6075 2.4314 17.4012 2.4314 17.1469C2.4314 16.8923 2.6377 16.686 2.89221 16.686C3.14658 16.686 3.35288 16.8923 3.35288 17.1469Z" fill="black"/>
<path d="M5.77816 14.7211C5.77816 14.9754 5.57187 15.1817 5.3175 15.1817C5.06299 15.1817 4.85669 14.9754 4.85669 14.7211C4.85669 14.4666 5.06299 14.2603 5.3175 14.2603C5.57187 14.2603 5.77816 14.4666 5.77816 14.7211Z" fill="black"/>
<path d="M0.549164 17.1814C-0.0793457 17.81 -0.0784302 18.8619 0.549164 19.4896C1.17813 20.1186 2.22931 20.1177 2.85736 19.4896L8.25028 14.0966C8.25028 14.0966 9.68293 15.5292 9.68415 15.5306C10.2126 16.059 11.0942 16.0582 11.6217 15.5306L11.8028 15.3495C11.8028 15.3495 14.3825 17.9291 14.3852 17.9319C14.8427 18.3893 15.6049 18.3892 16.0622 17.9319C16.5193 17.4749 16.5187 16.7115 16.0622 16.2551C16.0622 16.2551 14.498 14.6908 14.4943 14.6871C14.2629 14.4556 14.2632 14.0703 14.4943 13.8392C14.7258 13.6077 15.1109 13.6078 15.3423 13.8392L15.9328 14.4297C16.3951 14.8919 17.1474 14.892 17.6097 14.4297C18.0721 13.9673 18.0721 13.2151 17.6097 12.7527L16.0046 11.1477L18.0985 9.054C18.8136 8.33882 19.3349 7.4918 19.6474 6.53691C19.9452 5.62657 20.0345 4.64222 19.9054 3.69023C19.8837 3.52986 19.736 3.4174 19.5757 3.43922C19.4153 3.46104 19.3028 3.60859 19.3247 3.76896C19.5697 5.57652 18.9717 7.35188 17.6839 8.63957L15.5902 10.7332C15.5902 10.7332 13.3156 8.4586 13.3133 8.45631C13.0829 8.22575 13.0833 7.83833 13.3133 7.60838C13.542 7.37965 13.9331 7.38026 14.1614 7.60838C14.1614 7.60838 14.9555 8.4023 14.9555 8.40245C15.4117 8.85869 16.1758 8.85899 16.6324 8.40245C17.0894 7.94545 17.0888 7.18205 16.6324 6.72551L14.2333 4.32637L17.8861 0.673562C18.4184 1.26103 18.8167 1.93836 19.0715 2.69062C19.1234 2.84382 19.2897 2.92607 19.4431 2.87419C19.5964 2.82215 19.6785 2.65583 19.6266 2.50248C19.3114 1.57185 18.7972 0.745583 18.0985 0.0468827C17.9839 -0.0677109 17.7983 -0.0677109 17.6839 0.0468827C17.6839 0.0467301 0.557404 17.1732 0.549164 17.1814ZM2.44293 19.0751C2.03964 19.4782 1.36643 19.4779 0.963593 19.0751C0.560303 18.6716 0.560761 17.9989 0.963593 17.5959L6.35666 12.203L6.37543 12.2219L7.83585 13.6821C7.83585 13.6821 2.4469 19.0709 2.44293 19.0751ZM16.2178 7.98787C15.9874 8.21828 15.5997 8.21782 15.3697 7.98787L14.5757 7.1938C14.1133 6.73146 13.3611 6.73146 12.8987 7.1938C12.4422 7.65034 12.4423 8.4142 12.8987 8.87074L17.1951 13.167C17.4289 13.4009 17.4289 13.7813 17.1951 14.0151C16.9614 14.2489 16.581 14.2489 16.3472 14.0151C16.3472 14.0151 15.7571 13.425 15.7567 13.4246C15.2991 12.967 14.5368 12.9674 14.0797 13.4246C13.6232 13.8811 13.6241 14.6459 14.0797 15.1014C14.0797 15.1014 15.6439 16.6657 15.6476 16.6694C15.8795 16.9011 15.8792 17.2857 15.6477 17.5173C15.416 17.7491 15.0307 17.7483 14.7997 17.5173L10.7648 13.4826C10.6537 13.3715 10.4616 13.3713 10.3503 13.4826C10.2383 13.5944 10.237 13.7836 10.3503 13.897L11.3884 14.935C11.3884 14.935 11.2076 15.1159 11.2073 15.116C10.9044 15.4191 10.401 15.4184 10.0987 15.116L6.77109 11.7885L7.50641 11.0531L9.5282 13.0748C9.63288 13.1795 9.80546 13.1887 9.92035 13.095C10.0525 12.9871 10.063 12.7808 9.94263 12.6604L7.92084 10.6386L13.8187 4.74079C13.8187 4.74079 16.2158 7.13795 16.2178 7.13994C16.447 7.36912 16.4467 7.75914 16.2178 7.98787Z" fill="black"/>
</g>
<defs>
<clipPath id="clip0">
<rect width="20" height="20" fill="white"/>
</clipPath>
</defs>
</svg>
