<svg width="23" height="23" viewBox="0 0 23 23" fill="none" xmlns="http://www.w3.org/2000/svg">
<path d="M16.2617 17.6094V19.4062C16.2617 21.3879 14.6496 23 12.668 23H3.63867C1.65702 23 0.0449219 21.3879 0.0449219 19.4062V3.59375C0.0449219 1.6121 1.65702 0 3.63867 0H12.668C14.6496 0 16.2617 1.6121 16.2617 3.59375V5.39062C16.2617 5.88687 15.8595 6.28906 15.3633 6.28906C14.867 6.28906 14.4648 5.88687 14.4648 5.39062V3.59375C14.4648 2.60301 13.6587 1.79688 12.668 1.79688H3.63867C2.64793 1.79688 1.8418 2.60301 1.8418 3.59375V19.4062C1.8418 20.397 2.64793 21.2031 3.63867 21.2031H12.668C13.6587 21.2031 14.4648 20.397 14.4648 19.4062V17.6094C14.4648 17.1131 14.867 16.7109 15.3633 16.7109C15.8595 16.7109 16.2617 17.1131 16.2617 17.6094ZM22.3871 9.95669L20.3752 7.94485C20.0243 7.5939 19.4554 7.5939 19.1046 7.94485C18.7537 8.29563 18.7537 8.86452 19.1046 9.2153L20.5356 10.6465H9.74805C9.2518 10.6465 8.84961 11.0487 8.84961 11.5449C8.84961 12.0412 9.2518 12.4434 9.74805 12.4434H20.5356L19.1046 13.8745C18.7537 14.2253 18.7537 14.7942 19.1046 15.145C19.2801 15.3205 19.51 15.4082 19.7398 15.4082C19.9699 15.4082 20.1998 15.3205 20.3752 15.145L22.3871 13.1332C23.2629 12.2574 23.2629 10.8325 22.3871 9.95669V9.95669Z" fill="#2F2F2F"/>
</svg>
