<svg width="23" height="22" viewBox="0 0 23 22" fill="none" xmlns="http://www.w3.org/2000/svg">
<g clip-path="url(#clip0)">
<path d="M21.9063 9.78086C22.3525 9.34267 22.51 8.69956 22.3175 8.10251C22.1249 7.50547 21.6222 7.07853 21.0056 6.98829L15.6135 6.19894C15.5077 6.18347 15.4162 6.11651 15.3688 6.01982L12.9574 1.09747C12.6817 0.534516 12.1233 0.184814 11.5001 0.184814C10.877 0.184814 10.3186 0.534516 10.0428 1.09747L7.63145 6.01987C7.58404 6.11651 7.49259 6.18347 7.38671 6.19899L1.99473 6.98829C1.37808 7.07853 0.875457 7.50547 0.682838 8.10251C0.490219 8.69956 0.647799 9.34267 1.09407 9.78086L4.99577 13.6124C5.07235 13.6877 5.10734 13.796 5.08924 13.9023L4.16817 19.3125C4.06286 19.9312 4.31054 20.5448 4.81466 20.9138C5.31878 21.2829 5.9747 21.3305 6.52618 21.0385L11.3489 18.4841C11.4436 18.4339 11.5567 18.4339 11.6515 18.4841L16.4742 21.0385C16.7141 21.1655 16.9737 21.2283 17.232 21.2283C17.5675 21.2283 17.9008 21.1224 18.1856 20.9137C18.6897 20.5447 18.9375 19.9311 18.8321 19.3124L17.911 13.9022C17.893 13.796 17.9279 13.6876 18.0045 13.6124L21.9063 9.78086ZM16.6298 14.1237L17.5508 19.534C17.5816 19.7151 17.4707 19.8183 17.4215 19.8542C17.3724 19.8901 17.2406 19.9646 17.0792 19.8791L12.2565 17.3248C12.0197 17.1994 11.76 17.1367 11.5002 17.1367C11.2405 17.1367 10.9807 17.1994 10.744 17.3247L5.92127 19.879C5.75984 19.9645 5.62811 19.8901 5.57897 19.8541C5.52983 19.8182 5.41884 19.715 5.44969 19.5339L6.37077 14.1237C6.4612 13.5925 6.28654 13.0508 5.90337 12.6746L2.00166 8.84304C1.87109 8.71474 1.90064 8.56554 1.91946 8.50735C1.93818 8.44911 2.00138 8.31087 2.18182 8.28449L7.57374 7.49514C8.10313 7.41766 8.56061 7.08289 8.79741 6.59951L11.2088 1.67711C11.2895 1.51239 11.4395 1.4946 11.5003 1.4946C11.561 1.4946 11.7109 1.51234 11.7917 1.67711V1.67716L14.2031 6.59955C14.4399 7.08294 14.8973 7.41771 15.4267 7.49519L20.8187 8.28454C20.9991 8.31092 21.0623 8.44916 21.0811 8.5074C21.0998 8.56563 21.1294 8.71488 20.9988 8.84309L17.0971 12.6746C16.714 13.0508 16.5393 13.5925 16.6298 14.1237Z" fill="#333333"/>
</g>
<defs>
<clipPath id="clip0">
<rect width="23" height="21.5161" fill="white"/>
</clipPath>
</defs>
</svg>
