<svg width="24" height="24" viewBox="0 0 24 24" fill="none" xmlns="http://www.w3.org/2000/svg">
<path d="M20 0H4C1.794 0 0 1.794 0 4V20C0 22.206 1.794 24 4 24H20C22.206 24 24 22.206 24 20V4C24 1.794 22.206 0 20 0ZM22 20C22 21.104 21.104 22 20 22H4C2.897 22 2 21.104 2 20V4C2 2.897 2.897 2 4 2H20C21.104 2 22 2.897 22 4V20Z" fill="#333333"/>
<path d="M18.5 7H5.5C4.948 7 4.5 7.448 4.5 8C4.5 8.552 4.948 9 5.5 9H18.5C19.052 9 19.5 8.552 19.5 8C19.5 7.448 19.052 7 18.5 7Z" fill="#333333"/>
<path d="M18.5 11H5.5C4.948 11 4.5 11.448 4.5 12C4.5 12.552 4.948 13 5.5 13H18.5C19.052 13 19.5 12.552 19.5 12C19.5 11.448 19.052 11 18.5 11Z" fill="#333333"/>
<path d="M12 15H5.5C4.948 15 4.5 15.448 4.5 16C4.5 16.552 4.948 17 5.5 17H12C12.552 17 13 16.552 13 16C13 15.448 12.552 15 12 15Z" fill="#333333"/>
</svg>
