<svg width="28" height="28" viewBox="0 0 28 28" fill="none" xmlns="http://www.w3.org/2000/svg">
<circle cx="14" cy="14" r="14" fill="url(#paint0_linear)"/>
<path d="M7.9806 12.02C6.88598 12.02 6 12.9055 6 13.9996C6 15.0937 6.88498 15.9797 7.9806 15.9797C9.07322 15.9797 9.96019 15.0952 9.96019 13.9996C9.96019 12.9055 9.07322 12.02 7.9806 12.02ZM14.1026 12.02C13.0105 12.02 12.122 12.905 12.122 13.9991C12.122 15.0932 13.0095 15.9792 14.1026 15.9792C15.1957 15.9792 16.0842 15.0947 16.0842 13.9991C16.0832 12.9055 15.1957 12.02 14.1026 12.02ZM20.0209 12.02C18.9268 12.02 18.0398 12.9055 18.0398 14.0001C18.0398 15.0932 18.9253 15.9792 20.0209 15.9792C21.113 15.9792 22 15.0947 22 14.0001C22 12.9055 21.113 12.02 20.0209 12.02Z" fill="#F3F3F3"/>
<defs>
<linearGradient id="paint0_linear" x1="0" y1="14" x2="28" y2="14" gradientUnits="userSpaceOnUse">
<stop stop-color="#A32CDF"/>
<stop offset="1" stop-color="#4F4FD7"/>
</linearGradient>
</defs>
</svg>
