<svg width="399" height="74" viewBox="0 0 399 74" fill="none" xmlns="http://www.w3.org/2000/svg">
<path d="M91.72 29.2C97.5867 29.2 102.067 30.64 105.16 33.52C108.307 36.4 109.88 40.6933 109.88 46.4V72H102.6V66.4C101.32 68.3733 99.48 69.8933 97.08 70.96C94.7333 71.9733 91.9333 72.48 88.68 72.48C83.9333 72.48 80.12 71.3333 77.24 69.04C74.4133 66.7467 73 63.7333 73 60C73 56.2667 74.36 53.28 77.08 51.04C79.8 48.7467 84.12 47.6 90.04 47.6H102.2V46.08C102.2 42.7733 101.24 40.24 99.32 38.48C97.4 36.72 94.5733 35.84 90.84 35.84C88.3333 35.84 85.88 36.2667 83.48 37.12C81.08 37.92 79.0533 39.0133 77.4 40.4L74.2 34.64C76.3867 32.88 79 31.5467 82.04 30.64C85.08 29.68 88.3067 29.2 91.72 29.2ZM89.96 66.56C92.8933 66.56 95.4267 65.92 97.56 64.64C99.6933 63.3067 101.24 61.44 102.2 59.04V53.12H90.36C83.8533 53.12 80.6 55.3067 80.6 59.68C80.6 61.8133 81.4267 63.4933 83.08 64.72C84.7333 65.9467 87.0267 66.56 89.96 66.56ZM146.573 29.2C150.679 29.2 154.359 30.1067 157.613 31.92C160.866 33.7333 163.399 36.2667 165.213 39.52C167.079 42.7733 168.013 46.5333 168.013 50.8C168.013 55.0667 167.079 58.8533 165.213 62.16C163.399 65.4133 160.866 67.9467 157.613 69.76C154.359 71.5733 150.679 72.48 146.573 72.48C143.426 72.48 140.546 71.8667 137.932 70.64C135.319 69.4133 133.159 67.6267 131.453 65.28V72H124.093V12.64H131.773V36C133.479 33.76 135.613 32.08 138.173 30.96C140.733 29.7867 143.533 29.2 146.573 29.2ZM145.933 65.76C148.653 65.76 151.079 65.1467 153.213 63.92C155.399 62.64 157.106 60.88 158.333 58.64C159.613 56.3467 160.253 53.7333 160.253 50.8C160.253 47.8667 159.613 45.28 158.333 43.04C157.106 40.7467 155.399 38.9867 153.213 37.76C151.079 36.5333 148.653 35.92 145.933 35.92C143.266 35.92 140.839 36.5333 138.653 37.76C136.466 38.9867 134.759 40.7467 133.533 43.04C132.306 45.28 131.693 47.8667 131.693 50.8C131.693 53.7333 132.306 56.3467 133.533 58.64C134.759 60.88 136.466 62.64 138.653 63.92C140.839 65.1467 143.266 65.76 145.933 65.76ZM218.144 29.6V72H210.864V65.6C209.317 67.7867 207.264 69.4933 204.704 70.72C202.197 71.8933 199.45 72.48 196.464 72.48C190.81 72.48 186.357 70.9333 183.104 67.84C179.85 64.6933 178.224 60.08 178.224 54V29.6H185.904V53.12C185.904 57.2267 186.89 60.3467 188.864 62.48C190.837 64.56 193.664 65.6 197.344 65.6C201.397 65.6 204.597 64.3733 206.944 61.92C209.29 59.4667 210.464 56 210.464 51.52V29.6H218.144ZM284.454 29.2C290.321 29.2 294.801 30.64 297.894 33.52C301.041 36.4 302.614 40.6933 302.614 46.4V72H295.334V66.4C294.054 68.3733 292.214 69.8933 289.814 70.96C287.468 71.9733 284.668 72.48 281.414 72.48C276.668 72.48 272.854 71.3333 269.974 69.04C267.148 66.7467 265.734 63.7333 265.734 60C265.734 56.2667 267.094 53.28 269.814 51.04C272.534 48.7467 276.854 47.6 282.774 47.6H294.934V46.08C294.934 42.7733 293.974 40.24 292.054 38.48C290.134 36.72 287.308 35.84 283.574 35.84C281.068 35.84 278.614 36.2667 276.214 37.12C273.814 37.92 271.788 39.0133 270.134 40.4L266.934 34.64C269.121 32.88 271.734 31.5467 274.774 30.64C277.814 29.68 281.041 29.2 284.454 29.2ZM282.694 66.56C285.628 66.56 288.161 65.92 290.294 64.64C292.428 63.3067 293.974 61.44 294.934 59.04V53.12H283.094C276.588 53.12 273.334 55.3067 273.334 59.68C273.334 61.8133 274.161 63.4933 275.814 64.72C277.468 65.9467 279.761 66.56 282.694 66.56ZM328.987 72.48C325.52 72.48 322.187 72.0267 318.987 71.12C315.787 70.16 313.28 68.96 311.467 67.52L314.667 61.44C316.534 62.7733 318.8 63.84 321.467 64.64C324.134 65.44 326.827 65.84 329.547 65.84C336.267 65.84 339.627 63.92 339.627 60.08C339.627 58.8 339.174 57.7867 338.267 57.04C337.36 56.2933 336.214 55.76 334.827 55.44C333.494 55.0667 331.574 54.6667 329.067 54.24C325.654 53.7067 322.854 53.0933 320.667 52.4C318.534 51.7067 316.694 50.5333 315.147 48.88C313.6 47.2267 312.827 44.9067 312.827 41.92C312.827 38.08 314.427 35.0133 317.627 32.72C320.827 30.3733 325.12 29.2 330.507 29.2C333.334 29.2 336.16 29.5467 338.987 30.24C341.814 30.9333 344.134 31.8667 345.947 33.04L342.667 39.12C339.2 36.88 335.12 35.76 330.427 35.76C327.174 35.76 324.694 36.2933 322.987 37.36C321.28 38.4267 320.427 39.84 320.427 41.6C320.427 42.9867 320.907 44.08 321.867 44.88C322.827 45.68 324 46.2667 325.387 46.64C326.827 47.0133 328.827 47.44 331.387 47.92C334.8 48.5067 337.547 49.1467 339.627 49.84C341.76 50.48 343.574 51.6 345.067 53.2C346.56 54.8 347.307 57.04 347.307 59.92C347.307 63.76 345.654 66.8267 342.347 69.12C339.094 71.36 334.64 72.48 328.987 72.48ZM373.385 52.24L364.585 60.4V72H356.905V12.64H364.585V50.72L387.705 29.6H396.985L379.145 47.12L398.745 72H389.305L373.385 52.24Z" fill="#7340DB"/>
<path d="M21.8476 23.7587C22.0186 23.3934 22.6056 22.7597 23.1186 22.3944C25.2046 20.8931 28.5844 21.1328 31.3145 22.9709C31.9243 23.382 32.6823 24.0898 33.1611 24.6949C34.6373 26.5787 35.3497 28.8507 35.2585 31.4195C35.0932 36.2089 32.2321 40.4845 27.7808 42.6138C24.5491 44.1551 20.8958 44.4519 17.1512 43.4872C13.2641 42.4768 9.81595 40.1078 7.48485 36.8425C4.47552 32.6297 3.35842 27.2923 4.35583 21.8863C5.19936 17.3253 7.50195 13.1068 10.8476 9.98997C14.2046 6.86173 18.5077 4.85236 23.2497 4.19588C24.9538 3.96184 27.6383 3.93328 29.2911 4.13308C37.1849 5.08639 43.9787 9.24781 48.2306 15.7212C50.7383 19.5459 52.2145 23.8101 52.7275 28.708C53.0114 31.4195 53.0172 33.1864 52.9887 34.2163C52.9887 35.5889 52.9887 36.6188 52.9887 38.6209L52.9887 70.5" stroke="#7340DB" stroke-width="6.14729" stroke-linecap="round"/>
<path d="M226.366 4.15642C227.24 4.03665 228.616 4.02204 229.463 4.12428C233.509 4.61214 236.991 6.74171 239.17 10.0544C240.456 12.0117 241.212 14.1939 241.475 16.7003C241.621 18.0879 241.624 18.9921 241.609 19.5192C241.609 20.2216 241.609 20.7486 241.609 21.7732L241.609 70.071" stroke="#7340DB" stroke-width="6.14729" stroke-linecap="round"/>
<path d="M27.4585 3.99988L267 3.99982" stroke="#7340DB" stroke-width="6.14729" stroke-linecap="round"/>
</svg>
