<?xml version="1.0" encoding="UTF-8"?>
<svg xmlns="http://www.w3.org/2000/svg" xmlns:xlink="http://www.w3.org/1999/xlink" width="96pt" height="96pt" viewBox="0 0 96 96" version="1.1">
<g id="surface1">
<path style=" stroke:none;fill-rule:nonzero;fill:rgb(59.607843%,51.764706%,18.823529%);fill-opacity:1;" d="M 43.570312 2.761719 C 53.257812 1.832031 63.234375 4.085938 71.546875 9.15625 C 79.382812 13.875 85.726562 21.007812 89.507812 29.335938 C 93.507812 38.035156 94.570312 48.007812 92.695312 57.382812 C 90.820312 66.785156 85.847656 75.523438 78.757812 81.980469 C 71.667969 88.527344 62.4375 92.699219 52.835938 93.71875 C 46.644531 94.296875 40.316406 93.832031 34.367188 91.945312 C 24.199219 88.824219 15.226562 82 9.484375 73.046875 C 4.652344 65.613281 2.085938 56.730469 2.207031 47.863281 C 2.230469 37.722656 5.832031 27.648438 12.183594 19.75 C 19.789062 10.160156 31.371094 3.863281 43.570312 2.761719 Z M 43.570312 2.761719 "/>
<path style=" stroke:none;fill-rule:nonzero;fill:rgb(47.843137%,41.568627%,16.470588%);fill-opacity:1;" d="M 46.996094 3.976562 C 55.121094 3.835938 63.296875 5.910156 70.304688 10.050781 C 77.859375 14.488281 84.074219 21.210938 87.835938 29.132812 C 91.894531 37.394531 93.089844 46.960938 91.511719 56.007812 C 89.445312 68.132812 81.992188 79.191406 71.570312 85.707031 C 64.351562 90.332031 55.738281 92.726562 47.175781 92.539062 C 38.8125 92.484375 30.515625 89.878906 23.546875 85.273438 C 16.414062 80.566406 10.632812 73.789062 7.269531 65.917969 C 3.386719 57.0625 2.5625 46.914062 4.925781 37.539062 C 7.230469 28.046875 12.882812 19.457031 20.554688 13.433594 C 28.023438 7.5 37.472656 4.171875 46.996094 3.976562 Z M 46.996094 3.976562 "/>
<path style=" stroke:none;fill-rule:nonzero;fill:rgb(72.941176%,62.352941%,20%);fill-opacity:1;" d="M 30.167969 8.691406 C 37.800781 5.230469 46.453125 4.132812 54.722656 5.441406 C 63.355469 6.785156 71.53125 10.851562 77.835938 16.898438 C 85.554688 24.210938 90.417969 34.445312 91.148438 45.054688 C 92.113281 57.152344 87.679688 69.5625 79.210938 78.257812 C 79.089844 75.738281 79.054688 73.210938 79.007812 70.6875 C 78.988281 68.816406 78.570312 66.984375 78.414062 65.128906 C 78.445312 64.476562 78.523438 63.832031 78.542969 63.183594 C 78.632812 61.429688 77.707031 59.796875 77.945312 58.03125 C 78.175781 55.550781 76.875 53.300781 76.230469 50.976562 C 75.589844 49.339844 75.632812 47.542969 75.007812 45.90625 C 74.5625 39.582031 72.113281 33.195312 67.3125 28.898438 C 67.46875 28.679688 67.773438 28.238281 67.929688 28.015625 C 68.121094 28.429688 68.335938 28.824219 68.554688 29.222656 C 69.667969 27.960938 69.839844 26.222656 70.171875 24.640625 C 70.792969 21.820312 70.363281 18.910156 69.882812 16.105469 C 69.507812 14.667969 69.210938 13.003906 68.007812 12.007812 C 66.726562 11.253906 64.5 11.242188 63.753906 12.742188 C 63.726562 12.828125 63.679688 13.003906 63.652344 13.085938 C 63.09375 14.058594 62.320312 14.898438 61.347656 15.464844 C 59.621094 16.527344 58.679688 18.542969 56.835938 19.476562 C 55.6875 19.851562 54.519531 19.210938 53.347656 19.34375 C 51.140625 19.570312 48.898438 19.6875 46.757812 20.304688 C 44.726562 19.980469 42.691406 19.660156 40.675781 19.253906 C 40.679688 19.105469 40.695312 18.816406 40.707031 18.667969 C 39.785156 17.773438 38.945312 16.757812 38.609375 15.492188 C 37.992188 13.132812 36.539062 10.867188 34.351562 9.710938 C 34.039062 9.585938 33.730469 9.46875 33.421875 9.355469 C 33.226562 9.570312 33.039062 9.785156 32.855469 10 C 32.785156 10.164062 32.640625 10.496094 32.570312 10.660156 C 32.082031 11.75 32.191406 12.964844 32.15625 14.128906 C 32.125 17.132812 31.8125 20.207031 30.542969 22.964844 C 28.5 22.960938 26.460938 22.945312 24.417969 22.96875 C 24.011719 23.886719 24.15625 24.90625 24.132812 25.878906 C 20.851562 28.917969 19.539062 33.402344 18.925781 37.699219 C 18.921875 38.027344 18.933594 38.363281 18.960938 38.695312 C 18.96875 38.824219 18.976562 39.089844 18.984375 39.214844 C 17.539062 41.117188 17.289062 43.605469 16.914062 45.890625 C 17.445312 45.859375 17.972656 45.828125 18.503906 45.808594 C 18.015625 45.859375 17.527344 45.90625 17.042969 45.953125 C 16.949219 46.476562 16.875 46.996094 16.816406 47.523438 C 17.289062 47.347656 17.761719 47.167969 18.238281 46.992188 L 18.492188 47.003906 C 17.929688 47.234375 17.375 47.503906 16.824219 47.777344 C 16.835938 48.105469 16.863281 48.773438 16.871094 49.105469 C 17.515625 48.773438 18.164062 48.460938 18.808594 48.128906 L 18.574219 48.390625 C 18.027344 48.746094 17.328125 48.9375 16.898438 49.445312 C 16.910156 50.644531 17.078125 51.839844 17.242188 53.027344 C 17.664062 55.726562 18.609375 58.355469 19.992188 60.710938 C 19.953125 62.433594 19.582031 64.167969 18.566406 65.589844 C 18.851562 66.125 19.324219 66.625 19.351562 67.253906 C 19.175781 68.328125 18.3125 69.230469 18.492188 70.371094 C 18.726562 73.128906 17.710938 75.761719 16.515625 78.191406 C 10.304688 71.738281 6.203125 63.292969 4.960938 54.421875 C 3.785156 46.140625 5.019531 37.511719 8.589844 29.9375 C 12.929688 20.574219 20.742188 12.882812 30.167969 8.691406 Z M 30.167969 8.691406 "/>
<path style=" stroke:none;fill-rule:nonzero;fill:rgb(78.039216%,61.176471%,23.137255%);fill-opacity:1;" d="M 32.855469 10 C 33.039062 9.785156 33.226562 9.570312 33.421875 9.355469 C 33.730469 9.46875 34.039062 9.585938 34.351562 9.710938 C 34.871094 11.351562 35.679688 12.992188 35.515625 14.757812 C 35.457031 15.941406 35.199219 17.210938 35.792969 18.308594 C 36.050781 18.933594 36.671875 19.257812 37.199219 19.617188 C 36.882812 19.867188 36.566406 20.113281 36.230469 20.335938 C 34.851562 20.882812 33.75 21.910156 32.714844 22.945312 C 32.316406 22.945312 31.914062 22.945312 31.515625 22.945312 C 33.703125 20.320312 34.667969 16.855469 34.660156 13.476562 C 34.703125 12.070312 33.628906 11.046875 32.855469 10 Z M 32.855469 10 "/>
<path style=" stroke:none;fill-rule:nonzero;fill:rgb(70.980392%,52.54902%,20.392157%);fill-opacity:1;" d="M 34.351562 9.710938 C 36.539062 10.867188 37.992188 13.132812 38.609375 15.492188 C 38.945312 16.757812 39.785156 17.773438 40.707031 18.667969 C 40.695312 18.816406 40.679688 19.105469 40.675781 19.253906 C 39.53125 18.878906 38.125 18.640625 37.199219 19.617188 C 36.671875 19.257812 36.050781 18.933594 35.792969 18.308594 C 35.199219 17.210938 35.457031 15.941406 35.515625 14.757812 C 35.679688 12.992188 34.871094 11.351562 34.351562 9.710938 Z M 34.351562 9.710938 "/>
<path style=" stroke:none;fill-rule:nonzero;fill:rgb(87.45098%,75.294118%,40.784314%);fill-opacity:1;" d="M 32.855469 10 C 33.628906 11.046875 34.703125 12.070312 34.660156 13.476562 C 34.667969 16.855469 33.703125 20.320312 31.515625 22.945312 C 31.367188 22.949219 31.070312 22.957031 30.917969 22.957031 C 31.867188 21.507812 32.804688 19.933594 32.90625 18.15625 C 33.085938 15.648438 32.3125 13.175781 32.570312 10.660156 C 32.640625 10.496094 32.785156 10.164062 32.855469 10 Z M 32.855469 10 "/>
<path style=" stroke:none;fill-rule:nonzero;fill:rgb(65.490196%,56.078431%,20%);fill-opacity:1;" d="M 32.15625 14.128906 C 32.191406 12.964844 32.082031 11.75 32.570312 10.660156 C 32.3125 13.175781 33.085938 15.648438 32.90625 18.15625 C 32.804688 19.933594 31.867188 21.507812 30.917969 22.957031 L 30.542969 22.964844 C 31.8125 20.207031 32.125 17.132812 32.15625 14.128906 Z M 32.15625 14.128906 "/>
<path style=" stroke:none;fill-rule:nonzero;fill:rgb(63.137255%,48.627451%,20.392157%);fill-opacity:1;" d="M 63.753906 12.742188 C 64.5 11.242188 66.726562 11.253906 68.007812 12.007812 C 69.210938 13.003906 69.507812 14.667969 69.882812 16.105469 C 70.363281 18.910156 70.792969 21.820312 70.171875 24.640625 C 69.839844 26.222656 69.667969 27.960938 68.554688 29.222656 C 68.335938 28.824219 68.121094 28.429688 67.929688 28.015625 C 67.71875 27.398438 67.539062 26.765625 67.339844 26.140625 C 68.109375 24.425781 68.5 22.550781 68.703125 20.6875 C 68.886719 19.027344 67.78125 17.65625 66.679688 16.5625 C 66.09375 15.019531 64.910156 13.867188 63.753906 12.742188 Z M 63.753906 12.742188 "/>
<path style=" stroke:none;fill-rule:nonzero;fill:rgb(72.156863%,59.607843%,26.666667%);fill-opacity:1;" d="M 63.652344 13.085938 C 63.679688 13.003906 63.726562 12.828125 63.753906 12.742188 C 64.910156 13.867188 66.09375 15.019531 66.679688 16.5625 C 66.648438 17.015625 66.542969 17.507812 66.070312 17.683594 C 64.714844 18.367188 63.199219 18.867188 62.210938 20.082031 C 61.53125 20.941406 60.210938 21.429688 60.101562 22.628906 C 60.246094 22.734375 60.535156 22.945312 60.679688 23.050781 C 60.542969 23.226562 60.277344 23.574219 60.144531 23.75 C 60.316406 23.929688 60.492188 24.101562 60.664062 24.277344 C 61.386719 23.523438 62.496094 23.460938 63.429688 23.128906 C 63.285156 23.492188 63.136719 23.855469 62.992188 24.222656 C 63.386719 24.132812 63.789062 24.046875 64.191406 23.964844 C 63.695312 24.53125 63.144531 25.042969 62.5625 25.523438 C 62.496094 25.484375 62.363281 25.414062 62.300781 25.382812 C 61.585938 25.027344 60.894531 24.554688 60.074219 24.523438 C 60.035156 24.398438 59.957031 24.164062 59.914062 24.039062 C 59.464844 24.015625 59.019531 23.929688 58.59375 23.789062 C 58.710938 23.492188 58.949219 22.898438 59.066406 22.605469 C 58.820312 22.726562 58.324219 22.964844 58.078125 23.085938 C 58.75 21.980469 59.402344 20.867188 60.058594 19.753906 C 60.105469 19.671875 60.199219 19.507812 60.246094 19.429688 C 61.148438 17.753906 62.476562 16.355469 63.386719 14.691406 C 63.707031 14.210938 63.695312 13.636719 63.652344 13.085938 Z M 63.652344 13.085938 "/>
<path style=" stroke:none;fill-rule:nonzero;fill:rgb(79.607843%,66.27451%,29.803922%);fill-opacity:1;" d="M 63.652344 13.085938 C 63.695312 13.636719 63.707031 14.210938 63.386719 14.691406 C 62.476562 16.355469 61.148438 17.753906 60.246094 19.429688 C 60.230469 18.023438 60.414062 16.585938 61.347656 15.464844 C 62.320312 14.898438 63.09375 14.058594 63.652344 13.085938 Z M 63.652344 13.085938 "/>
<path style=" stroke:none;fill-rule:nonzero;fill:rgb(67.45098%,50.588235%,19.607843%);fill-opacity:1;" d="M 56.835938 19.476562 C 58.679688 18.542969 59.621094 16.527344 61.347656 15.464844 C 60.414062 16.585938 60.230469 18.023438 60.246094 19.429688 C 60.199219 19.507812 60.105469 19.671875 60.058594 19.753906 C 60.097656 19.210938 60.042969 18.675781 59.964844 18.140625 C 59.09375 19.941406 58.132812 21.710938 56.816406 23.226562 C 56.054688 23.019531 55.261719 22.945312 54.472656 22.945312 C 54.910156 22.109375 55.472656 21.347656 56.066406 20.617188 C 53.003906 19.898438 49.851562 20.597656 46.757812 20.304688 C 48.902344 19.6875 51.140625 19.570312 53.347656 19.34375 C 54.519531 19.210938 55.6875 19.851562 56.835938 19.476562 Z M 56.835938 19.476562 "/>
<path style=" stroke:none;fill-rule:nonzero;fill:rgb(57.254902%,44.705882%,21.960784%);fill-opacity:1;" d="M 66.679688 16.5625 C 67.78125 17.65625 68.886719 19.023438 68.703125 20.6875 C 68.5 22.550781 68.109375 24.425781 67.339844 26.140625 C 66.773438 26.601562 66.1875 27.039062 65.605469 27.488281 C 65.332031 27.285156 65.050781 27.085938 64.773438 26.882812 L 64.632812 26.789062 C 65.527344 24.867188 66.972656 23.0625 67.066406 20.878906 C 65.363281 20.941406 63.660156 21.21875 62.039062 21.738281 C 61.367188 21.902344 61.027344 22.519531 60.679688 23.050781 C 60.535156 22.945312 60.246094 22.734375 60.101562 22.628906 C 60.210938 21.429688 61.53125 20.941406 62.210938 20.082031 C 63.199219 18.867188 64.714844 18.367188 66.070312 17.683594 C 66.542969 17.507812 66.648438 17.015625 66.679688 16.5625 Z M 66.679688 16.5625 "/>
<path style=" stroke:none;fill-rule:nonzero;fill:rgb(54.901961%,38.431373%,15.686275%);fill-opacity:1;" d="M 59.964844 18.140625 C 60.042969 18.675781 60.097656 19.210938 60.058594 19.753906 C 59.402344 20.867188 58.75 21.980469 58.078125 23.085938 C 58.324219 22.964844 58.820312 22.726562 59.070312 22.605469 C 58.949219 22.898438 58.710938 23.492188 58.59375 23.789062 C 58.003906 23.585938 57.414062 23.386719 56.816406 23.226562 C 58.132812 21.710938 59.09375 19.941406 59.964844 18.140625 Z M 59.964844 18.140625 "/>
<path style=" stroke:none;fill-rule:nonzero;fill:rgb(82.352941%,65.882353%,24.313725%);fill-opacity:1;" d="M 37.199219 19.617188 C 38.125 18.640625 39.53125 18.878906 40.675781 19.253906 C 42.691406 19.660156 44.726562 19.980469 46.757812 20.304688 C 49.851562 20.597656 53.003906 19.898438 56.066406 20.617188 C 55.472656 21.347656 54.910156 22.109375 54.472656 22.945312 C 49.460938 22.941406 44.449219 22.96875 39.441406 22.949219 C 39.230469 22.238281 39.203125 21.351562 38.546875 20.875 C 37.878906 20.394531 37.011719 20.421875 36.230469 20.335938 C 36.566406 20.113281 36.882812 19.867188 37.199219 19.617188 Z M 37.199219 19.617188 "/>
<path style=" stroke:none;fill-rule:nonzero;fill:rgb(86.27451%,72.941176%,35.294118%);fill-opacity:1;" d="M 32.714844 22.945312 C 33.75 21.910156 34.851562 20.882812 36.230469 20.335938 C 37.011719 20.421875 37.878906 20.394531 38.546875 20.875 C 39.203125 21.351562 39.230469 22.238281 39.441406 22.949219 C 37.199219 22.945312 34.957031 22.945312 32.714844 22.945312 Z M 32.714844 22.945312 "/>
<path style=" stroke:none;fill-rule:nonzero;fill:rgb(32.941176%,24.313725%,14.901961%);fill-opacity:1;" d="M 62.039062 21.738281 C 63.660156 21.21875 65.363281 20.941406 67.066406 20.878906 C 66.972656 23.0625 65.527344 24.867188 64.632812 26.789062 C 63.972656 26.320312 63.277344 25.902344 62.5625 25.523438 C 63.144531 25.042969 63.695312 24.53125 64.191406 23.964844 C 63.789062 24.046875 63.386719 24.132812 62.992188 24.222656 C 63.136719 23.855469 63.285156 23.492188 63.429688 23.128906 C 62.496094 23.460938 61.386719 23.523438 60.664062 24.277344 C 60.492188 24.101562 60.316406 23.929688 60.144531 23.75 C 60.277344 23.574219 60.542969 23.226562 60.679688 23.050781 C 61.027344 22.519531 61.367188 21.902344 62.039062 21.738281 Z M 62.039062 21.738281 "/>
<path style=" stroke:none;fill-rule:nonzero;fill:rgb(95.294118%,92.156863%,85.882353%);fill-opacity:1;" d="M 24.417969 22.96875 C 26.460938 22.945312 28.5 22.960938 30.542969 22.964844 L 30.917969 22.957031 C 31.070312 22.957031 31.367188 22.949219 31.515625 22.945312 C 31.914062 22.945312 32.316406 22.945312 32.714844 22.945312 C 34.957031 22.945312 37.199219 22.945312 39.441406 22.949219 C 44.449219 22.96875 49.460938 22.941406 54.472656 22.945312 C 55.261719 22.945312 56.054688 23.019531 56.816406 23.226562 C 57.414062 23.386719 58.003906 23.585938 58.59375 23.785156 C 59.019531 23.929688 59.464844 24.015625 59.914062 24.039062 C 59.957031 24.164062 60.035156 24.398438 60.074219 24.523438 C 60.894531 24.554688 61.589844 25.027344 62.300781 25.382812 C 61.835938 26.574219 60.898438 27.457031 60.023438 28.351562 C 60.789062 28.777344 61.550781 29.222656 62.246094 29.757812 C 63.136719 28.84375 63.960938 27.867188 64.773438 26.882812 C 65.050781 27.085938 65.332031 27.285156 65.605469 27.488281 C 66.195312 27.929688 66.769531 28.398438 67.3125 28.898438 C 72.113281 33.195312 74.5625 39.582031 75.011719 45.90625 C 75.070312 46.734375 75.082031 47.566406 75.105469 48.394531 C 75.089844 51.683594 74.792969 54.996094 73.929688 58.179688 C 73.332031 60.390625 72.484375 62.539062 71.324219 64.515625 C 70.511719 65.769531 69.640625 66.992188 68.589844 68.0625 C 67.910156 68.773438 67.195312 69.460938 66.402344 70.050781 C 66.042969 69.867188 65.691406 69.683594 65.335938 69.503906 C 64.730469 69.839844 64.167969 70.375 63.433594 70.390625 C 62.453125 70.457031 61.542969 70.882812 60.578125 71.054688 C 61.515625 69.652344 63.433594 68.601562 63.121094 66.664062 C 62.59375 66.691406 62.070312 66.714844 61.542969 66.742188 C 61.722656 66.0625 61.894531 65.378906 62.054688 64.695312 C 61.882812 64.578125 61.539062 64.347656 61.367188 64.230469 C 61.957031 63.570312 62.558594 62.914062 63.117188 62.222656 C 61.929688 62.492188 60.855469 63.082031 59.730469 63.523438 C 61.886719 60.382812 63.785156 57.058594 65.371094 53.597656 C 66.277344 51.449219 67.488281 49.320312 67.515625 46.925781 C 67.597656 45.398438 66.617188 44.078125 66.570312 42.5625 C 66.4375 40.816406 66.441406 38.800781 64.992188 37.558594 C 62.496094 38.070312 59.96875 37.59375 57.476562 37.300781 C 56.808594 37.207031 56.136719 37.320312 55.476562 37.429688 C 55.363281 37.289062 55.242188 37.160156 55.117188 37.027344 C 54.34375 36.25 53.523438 35.4375 52.464844 35.070312 C 51.492188 34.910156 50.5 35.039062 49.519531 35.050781 L 49.382812 35.015625 C 48.300781 34.542969 47.171875 33.925781 45.945312 34.144531 C 44.929688 34.253906 44.320312 35.175781 43.507812 35.6875 C 42.671875 36.21875 41.839844 36.773438 41.207031 37.550781 C 42.042969 38.980469 43.546875 39.765625 45.101562 40.167969 C 45.050781 41.101562 44.976562 42.035156 44.898438 42.964844 C 43.941406 43.285156 43.046875 43.757812 42.226562 44.339844 C 41.789062 43.394531 41.582031 42.359375 41.160156 41.410156 C 40.710938 40.808594 40.085938 40.367188 39.519531 39.882812 C 39.386719 40.285156 39.257812 40.691406 39.128906 41.097656 C 38.839844 41.25 38.554688 41.402344 38.265625 41.554688 C 38.226562 40.847656 38.207031 40.140625 38.078125 39.441406 C 37.796875 38.175781 36.894531 37.175781 36.414062 35.992188 C 36.492188 34.78125 36.863281 33.597656 36.894531 32.378906 C 36.289062 32.625 35.671875 32.847656 35.078125 33.113281 C 34.265625 33.4375 33.867188 34.292969 33.167969 34.769531 C 32.492188 35.070312 31.753906 35.183594 31.039062 35.371094 L 31.132812 35.113281 C 31.765625 34.554688 31.945312 33.738281 32.105469 32.949219 C 31.703125 33.144531 31.304688 33.335938 30.902344 33.535156 C 30.398438 32.828125 31.164062 32.351562 31.601562 31.890625 C 30.957031 31.289062 30.085938 30.824219 29.1875 31.148438 C 27.683594 31.675781 27.023438 33.34375 26.867188 34.8125 C 26.253906 34.828125 25.636719 34.855469 25.023438 34.84375 C 25.261719 34.398438 25.5 33.957031 25.742188 33.511719 C 25.441406 32.839844 24.757812 32.585938 24.113281 32.367188 C 24.148438 30.691406 24.117188 29.019531 24.117188 27.347656 C 24.121094 26.855469 24.132812 26.367188 24.132812 25.878906 C 24.15625 24.90625 24.011719 23.886719 24.417969 22.96875 Z M 24.417969 22.96875 "/>
<path style=" stroke:none;fill-rule:nonzero;fill:rgb(86.27451%,85.490196%,84.313725%);fill-opacity:1;" d="M 62.300781 25.382812 C 62.367188 25.414062 62.496094 25.484375 62.5625 25.523438 C 63.277344 25.902344 63.972656 26.320312 64.632812 26.789062 L 64.773438 26.882812 C 63.960938 27.867188 63.136719 28.84375 62.246094 29.757812 C 61.550781 29.222656 60.789062 28.777344 60.023438 28.351562 C 60.898438 27.457031 61.835938 26.574219 62.300781 25.382812 Z M 62.300781 25.382812 "/>
<path style=" stroke:none;fill-rule:nonzero;fill:rgb(65.490196%,55.686275%,19.607843%);fill-opacity:1;" d="M 18.925781 37.695312 C 19.539062 33.398438 20.851562 28.917969 24.132812 25.878906 C 24.132812 26.367188 24.121094 26.855469 24.117188 27.347656 C 21.941406 29.625 20.683594 32.664062 20.089844 35.722656 C 19.859375 36.761719 19.394531 37.726562 18.960938 38.695312 C 18.933594 38.363281 18.921875 38.027344 18.925781 37.695312 Z M 18.925781 37.695312 "/>
<path style=" stroke:none;fill-rule:nonzero;fill:rgb(70.980392%,58.431373%,26.666667%);fill-opacity:1;" d="M 65.605469 27.488281 C 66.1875 27.039062 66.773438 26.601562 67.339844 26.140625 C 67.539062 26.765625 67.71875 27.398438 67.929688 28.015625 C 67.773438 28.238281 67.46875 28.679688 67.3125 28.898438 C 66.769531 28.398438 66.195312 27.929688 65.605469 27.488281 Z M 65.605469 27.488281 "/>
<path style=" stroke:none;fill-rule:nonzero;fill:rgb(92.156863%,80%,45.098039%);fill-opacity:1;" d="M 20.089844 35.722656 C 20.683594 32.664062 21.941406 29.625 24.117188 27.347656 C 24.117188 29.019531 24.148438 30.691406 24.113281 32.367188 C 23.082031 33.242188 22.621094 34.6875 21.292969 35.214844 C 21.117188 36.128906 20.753906 36.992188 20.214844 37.75 C 19.824219 38.257812 19.398438 38.730469 18.984375 39.214844 C 18.976562 39.085938 18.96875 38.824219 18.960938 38.695312 C 19.394531 37.726562 19.859375 36.761719 20.089844 35.722656 Z M 20.089844 35.722656 "/>
<path style=" stroke:none;fill-rule:nonzero;fill:rgb(84.313725%,84.313725%,83.529412%);fill-opacity:1;" d="M 29.1875 31.148438 C 30.085938 30.824219 30.957031 31.289062 31.601562 31.890625 C 31.164062 32.351562 30.398438 32.828125 30.902344 33.535156 C 31.304688 33.335938 31.703125 33.144531 32.105469 32.949219 C 31.945312 33.738281 31.765625 34.554688 31.132812 35.113281 C 30.3125 34.992188 29.480469 34.980469 28.660156 35.070312 C 28.710938 34.578125 28.742188 34.082031 28.867188 33.601562 C 29.242188 33.195312 29.78125 33.023438 30.257812 32.773438 C 29.96875 32.484375 29.738281 32.109375 29.363281 31.929688 C 28.464844 32.167969 27.570312 32.851562 27.433594 33.820312 C 27.457031 34.261719 27.527344 34.703125 27.59375 35.148438 C 27.445312 35.140625 27.148438 35.128906 27.003906 35.125 L 26.820312 35.117188 L 26.867188 34.8125 C 27.023438 33.34375 27.683594 31.675781 29.1875 31.148438 Z M 29.1875 31.148438 "/>
<path style=" stroke:none;fill-rule:nonzero;fill:rgb(90.196078%,87.058824%,84.313725%);fill-opacity:1;" d="M 66.390625 31.757812 C 67.148438 31.492188 67.914062 31.246094 68.6875 31.027344 C 69.265625 32.1875 69.070312 33.445312 68.484375 34.554688 C 68.765625 34.554688 69.050781 34.558594 69.335938 34.5625 C 69.382812 35.539062 69.371094 36.902344 68.226562 37.222656 C 67.589844 35.824219 66.074219 35.011719 65.6875 33.476562 C 65.734375 32.847656 66.117188 32.308594 66.390625 31.757812 Z M 66.390625 31.757812 "/>
<path style=" stroke:none;fill-rule:nonzero;fill:rgb(96.078431%,94.901961%,90.196078%);fill-opacity:1;" d="M 27.433594 33.820312 C 27.570312 32.851562 28.464844 32.167969 29.363281 31.929688 C 29.738281 32.109375 29.96875 32.484375 30.257812 32.773438 C 29.78125 33.023438 29.242188 33.195312 28.867188 33.601562 C 28.742188 34.082031 28.710938 34.578125 28.660156 35.070312 C 28.394531 35.085938 27.859375 35.125 27.59375 35.148438 C 27.527344 34.703125 27.457031 34.261719 27.433594 33.820312 Z M 27.433594 33.820312 "/>
<path style=" stroke:none;fill-rule:nonzero;fill:rgb(97.254902%,95.294118%,89.411765%);fill-opacity:1;" d="M 35.078125 33.117188 C 35.671875 32.847656 36.289062 32.625 36.894531 32.382812 C 36.863281 33.601562 36.492188 34.78125 36.414062 35.992188 C 36.894531 37.179688 37.796875 38.179688 38.078125 39.445312 C 38.207031 40.140625 38.226562 40.851562 38.265625 41.554688 C 38.554688 41.402344 38.839844 41.25 39.128906 41.101562 C 39.257812 40.695312 39.386719 40.289062 39.519531 39.882812 C 40.085938 40.367188 40.710938 40.808594 41.160156 41.410156 C 41.582031 42.359375 41.789062 43.394531 42.226562 44.339844 C 43.046875 43.757812 43.941406 43.285156 44.898438 42.964844 C 44.976562 42.035156 45.050781 41.101562 45.101562 40.167969 C 45.105469 40.070312 45.109375 39.867188 45.113281 39.769531 C 44.558594 39.304688 43.691406 39.007812 43.617188 38.183594 C 43.546875 37.132812 44.210938 36.222656 44.949219 35.550781 C 45.15625 35.59375 45.367188 35.644531 45.578125 35.675781 C 45.980469 35.644531 46.179688 35.40625 46.164062 34.957031 C 46.707031 34.933594 47.246094 34.960938 47.789062 34.992188 C 47.242188 35.746094 46.542969 36.449219 45.585938 36.609375 C 45.582031 37.117188 45.59375 37.621094 45.621094 38.128906 C 45.589844 38.636719 45.539062 39.148438 45.507812 39.65625 L 45.496094 40.007812 C 45.503906 41.210938 45.503906 42.414062 45.511719 43.617188 C 45.519531 49.632812 45.492188 55.648438 45.523438 61.664062 C 45.554688 61.777344 45.613281 62.011719 45.644531 62.128906 C 48.351562 61.945312 51.4375 62.796875 53.789062 61.03125 C 57.082031 58.664062 58.433594 54.527344 58.773438 50.644531 C 59.160156 46.058594 58.339844 41.152344 55.476562 37.429688 C 56.136719 37.320312 56.808594 37.207031 57.476562 37.304688 C 59.96875 37.59375 62.496094 38.070312 64.992188 37.558594 C 66.441406 38.800781 66.4375 40.820312 66.570312 42.5625 C 66.617188 44.078125 67.597656 45.398438 67.515625 46.929688 C 67.488281 49.320312 66.277344 51.449219 65.371094 53.597656 C 63.785156 57.058594 61.886719 60.382812 59.730469 63.523438 C 60.855469 63.082031 61.929688 62.492188 63.117188 62.222656 C 62.558594 62.914062 61.957031 63.570312 61.367188 64.230469 C 61.539062 64.347656 61.882812 64.578125 62.054688 64.695312 C 61.894531 65.378906 61.722656 66.0625 61.542969 66.742188 C 62.070312 66.714844 62.59375 66.691406 63.121094 66.664062 C 63.429688 68.601562 61.515625 69.652344 60.578125 71.054688 C 61.542969 70.882812 62.453125 70.457031 63.433594 70.390625 C 64.164062 70.375 64.726562 69.839844 65.335938 69.503906 C 65.691406 69.683594 66.042969 69.867188 66.402344 70.050781 C 62.625 72.917969 57.867188 74.464844 53.125 74.359375 C 49 74.347656 44.875 74.378906 40.75 74.34375 C 38.964844 74.351562 37.171875 74.347656 35.386719 74.351562 C 34.074219 74.351562 32.757812 74.351562 31.445312 74.355469 C 31.058594 74.351562 30.675781 74.351562 30.289062 74.351562 C 28.539062 74.34375 26.78125 74.414062 25.03125 74.335938 C 24.417969 74.386719 24.167969 73.703125 24.164062 73.203125 C 24.085938 71.8125 24.160156 70.421875 24.136719 69.03125 C 24.152344 67.445312 24.164062 65.851562 24.121094 64.265625 C 24.117188 63.570312 24.226562 62.890625 24.386719 62.21875 C 26.59375 61.992188 28.808594 62.28125 31.023438 62.128906 C 31.023438 61.371094 31.023438 60.617188 31.023438 59.863281 C 31.023438 59.28125 31.023438 58.699219 31.03125 58.121094 C 31.164062 58.628906 31.332031 59.125 31.492188 59.625 C 32.539062 59.433594 33.695312 59.164062 34.484375 60.089844 C 36.324219 58.460938 39.039062 58.539062 41.238281 57.632812 C 41.714844 56.390625 42.832031 55.386719 42.683594 53.953125 C 42.597656 53.933594 42.417969 53.894531 42.328125 53.871094 C 40.027344 53.148438 37.871094 54.636719 35.621094 54.808594 C 34.125 54.667969 32.679688 53.945312 31.71875 52.785156 C 31.800781 52.453125 31.890625 52.121094 31.976562 51.792969 C 31.757812 51.609375 31.535156 51.425781 31.3125 51.242188 C 31.289062 50.570312 31.277344 49.902344 31.316406 49.238281 C 31.519531 48.449219 32.042969 47.835938 32.765625 47.472656 C 32.996094 46.289062 33.1875 45.101562 33.394531 43.917969 C 32.777344 43.140625 31.949219 42.597656 31.023438 42.257812 L 31.023438 42.164062 C 31.015625 41.371094 31.015625 40.582031 31.023438 39.789062 C 31.039062 38.417969 31.023438 37.050781 31.015625 35.679688 C 31.023438 35.601562 31.035156 35.445312 31.039062 35.371094 C 31.753906 35.183594 32.492188 35.070312 33.167969 34.773438 C 33.867188 34.292969 34.265625 33.4375 35.078125 33.117188 Z M 35.078125 33.117188 "/>
<path style=" stroke:none;fill-rule:nonzero;fill:rgb(95.686275%,93.72549%,78.431373%);fill-opacity:1;" d="M 21.292969 35.214844 C 22.621094 34.6875 23.082031 33.242188 24.113281 32.367188 C 24.125 33.152344 24.140625 33.941406 24.164062 34.726562 C 24.378906 34.757812 24.804688 34.816406 25.023438 34.84375 C 25.636719 34.855469 26.253906 34.828125 26.867188 34.8125 L 26.820312 35.117188 C 25.976562 35.101562 25.136719 35.101562 24.296875 35.085938 C 24.195312 35.554688 24.121094 36.03125 24.097656 36.511719 C 22.457031 37.148438 21.472656 38.65625 20.132812 39.703125 C 20.144531 39.050781 20.160156 38.398438 20.214844 37.75 C 20.753906 36.992188 21.117188 36.128906 21.292969 35.214844 Z M 21.292969 35.214844 "/>
<path style=" stroke:none;fill-rule:nonzero;fill:rgb(98.823529%,98.823529%,95.686275%);fill-opacity:1;" d="M 24.113281 32.367188 C 24.757812 32.585938 25.441406 32.839844 25.742188 33.511719 C 25.5 33.957031 25.261719 34.398438 25.023438 34.84375 C 24.804688 34.816406 24.378906 34.757812 24.164062 34.726562 C 24.140625 33.941406 24.125 33.152344 24.113281 32.367188 Z M 24.113281 32.367188 "/>
<path style=" stroke:none;fill-rule:nonzero;fill:rgb(84.313725%,84.313725%,83.529412%);fill-opacity:1;" d="M 43.507812 35.6875 C 44.320312 35.179688 44.929688 34.253906 45.945312 34.148438 C 47.171875 33.929688 48.300781 34.542969 49.382812 35.015625 C 48.851562 35.003906 48.320312 35.011719 47.789062 34.992188 C 47.246094 34.960938 46.707031 34.933594 46.164062 34.957031 C 45.726562 34.980469 45.527344 35.222656 45.578125 35.675781 C 45.367188 35.644531 45.15625 35.59375 44.949219 35.550781 C 44.210938 36.222656 43.546875 37.132812 43.617188 38.183594 C 43.691406 39.007812 44.558594 39.304688 45.113281 39.769531 C 45.109375 39.867188 45.105469 40.070312 45.101562 40.167969 C 43.546875 39.765625 42.042969 38.980469 41.207031 37.550781 C 41.839844 36.773438 42.671875 36.21875 43.507812 35.6875 Z M 43.507812 35.6875 "/>
<path style=" stroke:none;fill-rule:nonzero;fill:rgb(89.803922%,77.647059%,41.960784%);fill-opacity:1;" d="M 24.296875 35.085938 C 25.136719 35.101562 25.976562 35.101562 26.820312 35.117188 L 27.003906 35.125 C 27.335938 35.789062 27.800781 36.382812 28.460938 36.757812 C 28.664062 36.914062 28.863281 37.082031 29.058594 37.25 C 28.402344 38.257812 27.441406 39.054688 26.96875 40.179688 C 26.5 40.367188 26.039062 40.570312 25.566406 40.742188 C 25.464844 40.679688 25.265625 40.550781 25.164062 40.484375 C 25.261719 40.320312 25.449219 39.992188 25.542969 39.824219 C 25.1875 39.742188 24.828125 39.65625 24.472656 39.570312 C 24.285156 38.558594 24.148438 37.539062 24.097656 36.511719 C 24.121094 36.03125 24.195312 35.554688 24.296875 35.085938 Z M 24.296875 35.085938 "/>
<path style=" stroke:none;fill-rule:nonzero;fill:rgb(14.117647%,12.941176%,6.27451%);fill-opacity:1;" d="M 27.003906 35.125 C 27.148438 35.128906 27.445312 35.140625 27.59375 35.148438 C 27.519531 36.410156 28.960938 36.261719 29.804688 36.132812 C 29.429688 35.769531 29.050781 35.414062 28.660156 35.070312 C 29.480469 34.980469 30.3125 34.992188 31.132812 35.113281 L 31.039062 35.371094 C 31.035156 35.445312 31.023438 35.601562 31.015625 35.679688 C 30.082031 35.871094 29.457031 36.851562 28.460938 36.753906 C 27.800781 36.382812 27.335938 35.789062 27.003906 35.125 Z M 27.003906 35.125 "/>
<path style=" stroke:none;fill-rule:nonzero;fill:rgb(57.647059%,51.372549%,34.117647%);fill-opacity:1;" d="M 27.59375 35.148438 C 27.859375 35.125 28.394531 35.085938 28.660156 35.070312 C 29.050781 35.414062 29.429688 35.769531 29.804688 36.132812 C 28.960938 36.261719 27.519531 36.410156 27.59375 35.148438 Z M 27.59375 35.148438 "/>
<path style=" stroke:none;fill-rule:nonzero;fill:rgb(80.392157%,74.117647%,51.372549%);fill-opacity:1;" d="M 45.578125 35.675781 C 45.527344 35.222656 45.726562 34.980469 46.164062 34.957031 C 46.179688 35.40625 45.980469 35.644531 45.578125 35.675781 Z M 45.578125 35.675781 "/>
<path style=" stroke:none;fill-rule:nonzero;fill:rgb(14.509804%,13.333333%,6.666667%);fill-opacity:1;" d="M 47.789062 34.992188 C 48.320312 35.011719 48.851562 35.003906 49.382812 35.015625 L 49.519531 35.050781 C 50.214844 35.496094 50.902344 35.976562 51.476562 36.585938 C 50.816406 38 49.644531 39.191406 48.195312 39.789062 C 47.324219 40.050781 46.394531 39.960938 45.496094 40.007812 L 45.507812 39.65625 C 46.179688 39.648438 46.855469 39.625 47.535156 39.585938 C 46.789062 39.25 46.074219 38.828125 45.621094 38.128906 C 45.59375 37.621094 45.582031 37.117188 45.585938 36.609375 C 46.542969 36.449219 47.242188 35.746094 47.789062 34.992188 Z M 47.789062 34.992188 "/>
<path style=" stroke:none;fill-rule:nonzero;fill:rgb(82.352941%,69.803922%,34.117647%);fill-opacity:1;" d="M 49.519531 35.050781 C 50.5 35.039062 51.492188 34.914062 52.464844 35.070312 C 53.523438 35.4375 54.34375 36.25 55.117188 37.027344 C 54.117188 38.0625 53.464844 39.351562 52.609375 40.492188 C 51.761719 41.65625 50.238281 41.855469 49.042969 42.511719 C 47.945312 43.105469 46.761719 43.523438 45.511719 43.617188 C 45.503906 42.414062 45.503906 41.210938 45.496094 40.007812 C 46.394531 39.960938 47.320312 40.050781 48.195312 39.789062 C 49.644531 39.191406 50.816406 38 51.476562 36.585938 C 50.902344 35.976562 50.214844 35.496094 49.519531 35.050781 Z M 49.519531 35.050781 "/>
<path style=" stroke:none;fill-rule:nonzero;fill:rgb(90.196078%,74.117647%,38.431373%);fill-opacity:1;" d="M 28.460938 36.757812 C 29.457031 36.851562 30.082031 35.871094 31.015625 35.679688 C 31.023438 37.050781 31.039062 38.417969 31.023438 39.789062 C 30.273438 39.972656 29.488281 40.371094 28.714844 40.082031 C 28.132812 39.851562 27.527344 39.914062 26.96875 40.179688 C 27.441406 39.054688 28.402344 38.257812 29.058594 37.25 C 28.863281 37.082031 28.664062 36.914062 28.460938 36.757812 Z M 28.460938 36.757812 "/>
<path style=" stroke:none;fill-rule:nonzero;fill:rgb(41.176471%,38.039216%,28.235294%);fill-opacity:1;" d="M 47.910156 35.785156 C 48.921875 35.867188 47.382812 36.726562 47.910156 35.785156 Z M 47.910156 35.785156 "/>
<path style=" stroke:none;fill-rule:nonzero;fill:rgb(95.686275%,92.54902%,70.588235%);fill-opacity:1;" d="M 20.132812 39.703125 C 21.472656 38.65625 22.457031 37.148438 24.097656 36.511719 C 24.148438 37.539062 24.285156 38.558594 24.472656 39.570312 C 24.828125 39.65625 25.1875 39.742188 25.542969 39.824219 C 25.449219 39.992188 25.261719 40.320312 25.164062 40.484375 C 24.105469 41.289062 22.730469 41.882812 22.210938 43.199219 C 21.617188 44.8125 21.675781 46.5625 21.453125 48.246094 C 21.070312 47.867188 20.492188 47.550781 20.527344 46.929688 C 20.445312 45.664062 20.78125 44.417969 20.855469 43.164062 C 20.273438 44.011719 19.917969 44.988281 19.570312 45.949219 C 19.410156 46.554688 18.699219 46.6875 18.238281 46.992188 C 17.761719 47.164062 17.289062 47.347656 16.816406 47.523438 C 16.875 46.996094 16.949219 46.476562 17.042969 45.953125 C 17.527344 45.90625 18.015625 45.859375 18.503906 45.804688 C 17.972656 45.828125 17.445312 45.859375 16.914062 45.890625 C 17.289062 43.605469 17.539062 41.117188 18.984375 39.214844 C 19.398438 38.730469 19.824219 38.257812 20.214844 37.75 C 20.160156 38.398438 20.144531 39.050781 20.132812 39.703125 Z M 20.132812 39.703125 "/>
<path style=" stroke:none;fill-rule:nonzero;fill:rgb(44.313725%,41.176471%,30.980392%);fill-opacity:1;" d="M 48.214844 36.960938 C 49.164062 36.511719 48.3125 37.976562 48.214844 36.960938 Z M 48.214844 36.960938 "/>
<path style=" stroke:none;fill-rule:nonzero;fill:rgb(87.45098%,80.392157%,53.333333%);fill-opacity:1;" d="M 55.117188 37.027344 C 55.242188 37.160156 55.363281 37.289062 55.476562 37.429688 C 58.339844 41.152344 59.160156 46.058594 58.773438 50.644531 C 58.285156 50.910156 57.785156 51.164062 57.320312 51.476562 C 56.527344 52.023438 56.09375 52.945312 55.300781 53.492188 C 53.910156 54.183594 52.160156 54.019531 50.921875 55.039062 C 50.214844 55.839844 49.734375 56.824219 48.910156 57.523438 C 49.351562 57.96875 49.824219 58.382812 50.230469 58.867188 C 50.445312 59.238281 50.367188 59.714844 50.578125 60.089844 C 50.976562 60.410156 51.429688 60.652344 51.863281 60.921875 C 50.738281 61.089844 49.597656 61.050781 48.46875 60.898438 C 47.414062 60.699219 46.464844 61.296875 45.523438 61.664062 C 45.492188 55.648438 45.519531 49.632812 45.511719 43.617188 C 46.761719 43.523438 47.945312 43.105469 49.042969 42.511719 C 50.238281 41.855469 51.761719 41.65625 52.609375 40.492188 C 53.464844 39.351562 54.117188 38.0625 55.117188 37.027344 Z M 55.117188 37.027344 "/>
<path style=" stroke:none;fill-rule:nonzero;fill:rgb(87.45098%,80.392157%,53.333333%);fill-opacity:1;" d="M 45.621094 38.128906 C 46.074219 38.828125 46.789062 39.25 47.535156 39.585938 C 46.855469 39.625 46.179688 39.648438 45.507812 39.65625 C 45.539062 39.148438 45.589844 38.636719 45.621094 38.128906 Z M 45.621094 38.128906 "/>
<path style=" stroke:none;fill-rule:nonzero;fill:rgb(87.45098%,77.254902%,48.627451%);fill-opacity:1;" d="M 26.96875 40.179688 C 27.527344 39.914062 28.132812 39.851562 28.714844 40.082031 C 29.488281 40.371094 30.273438 39.972656 31.023438 39.789062 C 31.015625 40.582031 31.015625 41.371094 31.023438 42.164062 C 29.53125 41.640625 27.976562 41.226562 26.382812 41.316406 C 26.109375 41.121094 25.835938 40.929688 25.566406 40.742188 C 26.039062 40.570312 26.5 40.367188 26.96875 40.179688 Z M 26.96875 40.179688 "/>
<path style=" stroke:none;fill-rule:nonzero;fill:rgb(95.294118%,88.235294%,61.568627%);fill-opacity:1;" d="M 22.210938 43.199219 C 22.730469 41.882812 24.105469 41.289062 25.164062 40.484375 C 25.265625 40.550781 25.464844 40.679688 25.566406 40.742188 C 25.835938 40.929688 26.109375 41.121094 26.382812 41.316406 C 24.957031 41.363281 23.550781 42.28125 23.382812 43.78125 C 23.132812 45.6875 22.476562 47.515625 22.296875 49.429688 C 22.109375 50.804688 23.378906 51.703125 23.773438 52.902344 C 23.898438 53.554688 23.9375 54.222656 24.101562 54.867188 C 23.914062 55.699219 23.746094 56.539062 23.617188 57.382812 C 23.335938 57.390625 23.054688 57.398438 22.777344 57.410156 C 22.484375 58.089844 22.132812 58.753906 21.910156 59.464844 C 22.164062 60.835938 22.613281 62.171875 22.929688 63.535156 C 22.867188 63.6875 22.738281 63.996094 22.675781 64.148438 C 21.992188 63.410156 21.605469 62.375 20.707031 61.863281 C 20.476562 61.472656 20.226562 61.097656 19.992188 60.710938 C 18.609375 58.351562 17.664062 55.726562 17.242188 53.023438 C 17.367188 52.226562 17.523438 51.433594 17.652344 50.640625 C 18.226562 51.78125 18.164062 53.171875 18.933594 54.210938 C 19.457031 54.074219 19.980469 53.945312 20.511719 53.851562 L 20.773438 54.164062 C 21.324219 53.367188 21.84375 52.511719 21.945312 51.523438 C 21.585938 52.011719 21.25 52.519531 20.945312 53.042969 C 20.507812 52.355469 19.992188 51.699219 19.738281 50.917969 C 19.597656 50.015625 19.628906 49.101562 19.554688 48.195312 C 19.226562 48.257812 18.902344 48.320312 18.574219 48.390625 L 18.808594 48.128906 C 19.101562 47.804688 19.378906 47.46875 19.660156 47.136719 C 19.273438 47.085938 18.882812 47.023438 18.492188 47.003906 L 18.238281 46.992188 C 18.699219 46.6875 19.410156 46.554688 19.570312 45.949219 C 19.917969 44.988281 20.273438 44.011719 20.855469 43.164062 C 20.78125 44.417969 20.445312 45.664062 20.527344 46.929688 C 20.492188 47.550781 21.070312 47.867188 21.453125 48.246094 C 21.675781 46.5625 21.617188 44.8125 22.210938 43.199219 Z M 22.210938 43.199219 "/>
<path style=" stroke:none;fill-rule:nonzero;fill:rgb(14.509804%,13.333333%,6.666667%);fill-opacity:1;" d="M 23.382812 43.78125 C 23.550781 42.28125 24.957031 41.363281 26.382812 41.316406 C 27.976562 41.226562 29.53125 41.640625 31.023438 42.164062 L 31.023438 42.257812 C 31.03125 43.652344 31.011719 45.046875 31.027344 46.445312 L 31.023438 46.703125 C 30.554688 47.160156 30.113281 47.644531 29.664062 48.121094 C 28.898438 48.773438 27.921875 49.03125 26.972656 49.273438 C 26.929688 49.476562 26.839844 49.882812 26.796875 50.085938 C 26.746094 50.3125 26.648438 50.765625 26.601562 50.988281 C 25.257812 49.746094 24.476562 48.078125 23.585938 46.515625 C 23.085938 45.683594 23.277344 44.683594 23.382812 43.78125 Z M 23.382812 43.78125 "/>
<path style=" stroke:none;fill-rule:nonzero;fill:rgb(87.45098%,86.666667%,85.098039%);fill-opacity:1;" d="M 31.023438 42.257812 C 31.945312 42.597656 32.777344 43.140625 33.394531 43.917969 C 33.1875 45.101562 32.996094 46.289062 32.765625 47.472656 C 32.042969 47.835938 31.519531 48.449219 31.316406 49.238281 C 31.367188 48.292969 31.210938 47.363281 31.027344 46.445312 C 31.011719 45.046875 31.03125 43.652344 31.023438 42.257812 Z M 31.023438 42.257812 "/>
<path style=" stroke:none;fill-rule:nonzero;fill:rgb(83.921569%,83.921569%,83.529412%);fill-opacity:1;" d="M 9.765625 42.65625 C 10.761719 42.527344 11.773438 42.636719 12.773438 42.578125 L 12.332031 43.136719 C 13.882812 43.023438 15.460938 43.132812 16.957031 43.570312 C 15.585938 43.292969 14.191406 43.082031 12.789062 43.1875 C 12.273438 43.246094 11.808594 43.007812 11.382812 42.742188 C 10.882812 42.703125 10.085938 43.25 9.765625 42.65625 Z M 9.765625 42.65625 "/>
<path style=" stroke:none;fill-rule:nonzero;fill:rgb(43.137255%,38.823529%,25.882353%);fill-opacity:1;" d="M 22.296875 49.429688 C 22.476562 47.515625 23.132812 45.6875 23.382812 43.78125 C 23.277344 44.683594 23.085938 45.683594 23.585938 46.515625 C 24.476562 48.078125 25.257812 49.746094 26.601562 50.992188 C 26.648438 50.765625 26.746094 50.3125 26.796875 50.085938 C 27.289062 50.109375 27.777344 50.136719 28.273438 50.167969 C 28.960938 50.726562 29.699219 51.226562 30.292969 51.890625 C 30.933594 50.671875 30.03125 49.476562 30.152344 48.226562 C 30.03125 48.199219 29.785156 48.148438 29.664062 48.121094 C 30.113281 47.644531 30.554688 47.160156 31.023438 46.703125 C 31.019531 48.832031 31.027344 50.960938 31.027344 53.089844 C 28.621094 52.339844 26.054688 51.46875 23.539062 52.273438 C 25.890625 53.351562 28.542969 53.433594 31.023438 54.085938 C 31.023438 54.789062 31.019531 55.492188 31.011719 56.195312 C 29.867188 56.710938 28.820312 57.421875 27.707031 58 C 26.542969 57.21875 25.695312 56.070312 24.542969 55.277344 C 24.433594 55.175781 24.210938 54.96875 24.101562 54.867188 C 23.9375 54.222656 23.898438 53.554688 23.773438 52.902344 C 23.378906 51.703125 22.109375 50.804688 22.296875 49.429688 Z M 22.296875 49.429688 "/>
<path style=" stroke:none;fill-rule:nonzero;fill:rgb(74.901961%,65.098039%,29.803922%);fill-opacity:1;" d="M 12.738281 47.238281 C 13.933594 46.574219 15.289062 46.277344 16.617188 46.015625 C 16.476562 46.316406 16.242188 46.496094 15.921875 46.566406 C 14.882812 46.878906 13.835938 47.242188 12.738281 47.238281 Z M 12.738281 47.238281 "/>
<path style=" stroke:none;fill-rule:nonzero;fill:rgb(59.607843%,51.764706%,18.823529%);fill-opacity:1;" d="M 75.007812 45.90625 C 75.632812 47.542969 75.589844 49.339844 76.230469 50.976562 C 76.875 53.300781 78.175781 55.550781 77.945312 58.03125 C 77.625 57.511719 77.328125 56.960938 77.355469 56.332031 C 77.359375 54.992188 76.644531 53.820312 76.316406 52.554688 C 75.929688 51.164062 75.523438 49.773438 75.105469 48.394531 C 75.082031 47.566406 75.070312 46.734375 75.007812 45.90625 Z M 75.007812 45.90625 "/>
<path style=" stroke:none;fill-rule:nonzero;fill:rgb(90.588235%,89.019608%,85.882353%);fill-opacity:1;" d="M 31.027344 46.445312 C 31.210938 47.363281 31.367188 48.292969 31.316406 49.238281 C 31.277344 49.902344 31.289062 50.570312 31.3125 51.242188 C 31.535156 51.425781 31.757812 51.609375 31.976562 51.792969 C 31.890625 52.121094 31.800781 52.453125 31.71875 52.785156 C 31.597656 53.269531 31.578125 53.773438 31.585938 54.273438 C 34.992188 55.472656 39.257812 56.308594 42.328125 53.871094 C 42.414062 53.894531 42.597656 53.933594 42.683594 53.953125 C 42.832031 55.386719 41.714844 56.390625 41.238281 57.632812 C 39.039062 58.539062 36.324219 58.460938 34.484375 60.089844 C 33.695312 59.164062 32.539062 59.433594 31.492188 59.625 C 31.332031 59.125 31.164062 58.628906 31.03125 58.121094 C 31.003906 57.476562 31.007812 56.835938 31.011719 56.195312 C 31.019531 55.492188 31.023438 54.789062 31.023438 54.085938 C 31.027344 53.753906 31.027344 53.421875 31.027344 53.089844 C 31.027344 50.960938 31.019531 48.832031 31.023438 46.703125 Z M 31.027344 46.445312 "/>
<path style=" stroke:none;fill-rule:nonzero;fill:rgb(96.078431%,92.941176%,71.372549%);fill-opacity:1;" d="M 18.492188 47.003906 C 18.882812 47.023438 19.273438 47.085938 19.660156 47.136719 C 19.378906 47.46875 19.101562 47.804688 18.808594 48.128906 C 18.164062 48.460938 17.515625 48.773438 16.871094 49.101562 C 16.863281 48.773438 16.835938 48.105469 16.824219 47.773438 C 17.375 47.503906 17.929688 47.234375 18.492188 47.003906 Z M 18.492188 47.003906 "/>
<path style=" stroke:none;fill-rule:nonzero;fill:rgb(95.686275%,92.54902%,70.588235%);fill-opacity:1;" d="M 18.574219 48.390625 C 18.902344 48.320312 19.226562 48.257812 19.554688 48.195312 C 19.628906 49.101562 19.597656 50.015625 19.738281 50.917969 C 19.992188 51.699219 20.507812 52.355469 20.945312 53.042969 C 20.792969 53.308594 20.648438 53.578125 20.511719 53.851562 C 19.980469 53.945312 19.457031 54.074219 18.933594 54.210938 C 18.164062 53.171875 18.226562 51.78125 17.652344 50.640625 C 17.523438 51.433594 17.367188 52.226562 17.242188 53.023438 C 17.078125 51.835938 16.910156 50.644531 16.898438 49.441406 C 17.328125 48.9375 18.027344 48.746094 18.574219 48.390625 Z M 18.574219 48.390625 "/>
<path style=" stroke:none;fill-rule:nonzero;fill:rgb(22.352941%,20%,12.156863%);fill-opacity:1;" d="M 26.972656 49.273438 C 27.921875 49.03125 28.898438 48.773438 29.664062 48.121094 C 29.785156 48.148438 30.03125 48.199219 30.152344 48.226562 C 30.03125 49.476562 30.933594 50.671875 30.292969 51.890625 C 29.699219 51.226562 28.960938 50.726562 28.273438 50.167969 C 27.777344 50.136719 27.289062 50.109375 26.796875 50.085938 C 26.839844 49.882812 26.929688 49.476562 26.972656 49.273438 Z M 26.972656 49.273438 "/>
<path style=" stroke:none;fill-rule:nonzero;fill:rgb(80%,65.882353%,27.843137%);fill-opacity:1;" d="M 75.105469 48.394531 C 75.523438 49.773438 75.929688 51.164062 76.316406 52.554688 C 76.644531 53.820312 77.359375 54.992188 77.351562 56.332031 C 77.328125 56.960938 77.625 57.511719 77.941406 58.03125 C 77.707031 59.796875 78.632812 61.429688 78.542969 63.183594 C 78.519531 63.832031 78.445312 64.476562 78.410156 65.128906 C 78.179688 64.726562 77.898438 64.355469 77.601562 64.003906 C 77.261719 65.054688 77.488281 66.355469 76.628906 67.179688 C 76.253906 66.648438 76.066406 65.765625 75.300781 65.6875 C 74.191406 65.507812 73.15625 66.054688 72.414062 66.835938 C 71.433594 67.882812 69.921875 67.929688 68.589844 68.0625 C 69.640625 66.992188 70.511719 65.769531 71.324219 64.515625 C 72.050781 64.742188 72.539062 64.097656 73.078125 63.746094 C 73.613281 63.292969 74.3125 63.140625 74.910156 62.792969 C 75.414062 61.992188 75.789062 61.101562 76.003906 60.179688 C 75.832031 59.570312 75.546875 59.007812 75.410156 58.390625 C 75.097656 58.464844 74.789062 58.539062 74.480469 58.617188 C 74.34375 58.507812 74.066406 58.289062 73.929688 58.179688 C 74.789062 54.996094 75.085938 51.683594 75.105469 48.394531 Z M 75.105469 48.394531 "/>
<path style=" stroke:none;fill-rule:nonzero;fill:rgb(75.686275%,66.27451%,33.72549%);fill-opacity:1;" d="M 15.492188 49.761719 C 15.960938 49.546875 15.96875 50.164062 15.585938 50.257812 C 15.257812 50.429688 14.859375 50.773438 14.46875 50.609375 C 14.453125 50.125 15.132812 49.941406 15.492188 49.761719 Z M 15.492188 49.761719 "/>
<path style=" stroke:none;fill-rule:nonzero;fill:rgb(92.54902%,83.529412%,57.254902%);fill-opacity:1;" d="M 57.320312 51.476562 C 57.785156 51.164062 58.285156 50.910156 58.773438 50.644531 C 58.433594 54.527344 57.082031 58.664062 53.789062 61.03125 C 51.4375 62.796875 48.351562 61.945312 45.644531 62.128906 C 45.613281 62.011719 45.554688 61.777344 45.523438 61.664062 C 46.464844 61.296875 47.414062 60.699219 48.46875 60.898438 C 49.597656 61.050781 50.738281 61.089844 51.863281 60.921875 C 51.429688 60.652344 50.976562 60.410156 50.578125 60.089844 C 50.367188 59.714844 50.445312 59.238281 50.230469 58.867188 C 49.824219 58.386719 49.351562 57.96875 48.910156 57.523438 C 49.734375 56.824219 50.214844 55.839844 50.921875 55.039062 C 52.160156 54.019531 53.910156 54.183594 55.300781 53.492188 C 56.09375 52.945312 56.527344 52.023438 57.320312 51.476562 Z M 57.320312 51.476562 "/>
<path style=" stroke:none;fill-rule:nonzero;fill:rgb(84.313725%,76.078431%,48.627451%);fill-opacity:1;" d="M 20.945312 53.042969 C 21.25 52.519531 21.585938 52.011719 21.945312 51.523438 C 21.84375 52.511719 21.324219 53.367188 20.773438 54.164062 L 20.511719 53.851562 C 20.648438 53.578125 20.792969 53.308594 20.945312 53.042969 Z M 20.945312 53.042969 "/>
<path style=" stroke:none;fill-rule:nonzero;fill:rgb(14.117647%,12.941176%,6.27451%);fill-opacity:1;" d="M 23.539062 52.273438 C 26.054688 51.46875 28.621094 52.339844 31.027344 53.089844 C 31.027344 53.421875 31.027344 53.753906 31.023438 54.085938 C 28.542969 53.433594 25.890625 53.351562 23.539062 52.273438 Z M 23.539062 52.273438 "/>
<path style=" stroke:none;fill-rule:nonzero;fill:rgb(83.921569%,83.921569%,83.529412%);fill-opacity:1;" d="M 31.585938 54.273438 C 31.578125 53.773438 31.597656 53.269531 31.71875 52.785156 C 32.679688 53.945312 34.125 54.667969 35.621094 54.808594 C 37.871094 54.636719 40.023438 53.148438 42.328125 53.871094 C 39.257812 56.308594 34.992188 55.472656 31.585938 54.273438 Z M 31.585938 54.273438 "/>
<path style=" stroke:none;fill-rule:nonzero;fill:rgb(93.333333%,84.705882%,54.509804%);fill-opacity:1;" d="M 24.101562 54.867188 C 24.210938 54.96875 24.433594 55.175781 24.542969 55.277344 C 24.65625 56.800781 25.574219 58.074219 26.289062 59.375 C 26.867188 60.449219 27.84375 61.230469 28.84375 61.898438 C 29.550781 62.09375 30.292969 62.070312 31.023438 62.128906 C 28.808594 62.28125 26.59375 61.992188 24.386719 62.21875 C 24.226562 62.890625 24.117188 63.570312 24.121094 64.265625 C 23.726562 64.019531 23.328125 63.777344 22.929688 63.535156 C 22.613281 62.171875 22.164062 60.835938 21.910156 59.464844 C 22.132812 58.753906 22.484375 58.089844 22.777344 57.410156 C 23.054688 57.398438 23.335938 57.390625 23.617188 57.382812 C 23.746094 56.539062 23.914062 55.699219 24.101562 54.867188 Z M 24.101562 54.867188 "/>
<path style=" stroke:none;fill-rule:nonzero;fill:rgb(87.45098%,77.647059%,46.666667%);fill-opacity:1;" d="M 24.542969 55.277344 C 25.695312 56.070312 26.542969 57.21875 27.707031 58 C 28.03125 58.289062 28.332031 58.605469 28.644531 58.910156 C 29.328125 59.453125 30.203125 59.628906 31.023438 59.863281 C 31.023438 60.617188 31.023438 61.371094 31.023438 62.128906 C 30.292969 62.070312 29.550781 62.09375 28.84375 61.898438 C 27.84375 61.230469 26.867188 60.449219 26.289062 59.375 C 25.574219 58.074219 24.65625 56.800781 24.542969 55.277344 Z M 24.542969 55.277344 "/>
<path style=" stroke:none;fill-rule:nonzero;fill:rgb(57.254902%,49.019608%,28.627451%);fill-opacity:1;" d="M 27.707031 58 C 28.820312 57.421875 29.867188 56.710938 31.011719 56.195312 C 31.007812 56.835938 31.003906 57.476562 31.03125 58.121094 C 30.199219 58.253906 29.230469 58.179688 28.644531 58.910156 C 28.332031 58.605469 28.03125 58.289062 27.707031 58 Z M 27.707031 58 "/>
<path style=" stroke:none;fill-rule:nonzero;fill:rgb(76.862745%,65.882353%,34.901961%);fill-opacity:1;" d="M 28.644531 58.910156 C 29.230469 58.179688 30.199219 58.253906 31.03125 58.121094 C 31.023438 58.699219 31.023438 59.28125 31.023438 59.863281 C 30.203125 59.628906 29.328125 59.453125 28.644531 58.910156 Z M 28.644531 58.910156 "/>
<path style=" stroke:none;fill-rule:nonzero;fill:rgb(75.294118%,60%,22.745098%);fill-opacity:1;" d="M 73.929688 58.179688 C 74.066406 58.289062 74.34375 58.507812 74.480469 58.617188 C 74.789062 58.539062 75.097656 58.464844 75.410156 58.390625 C 75.546875 59.007812 75.832031 59.570312 76.003906 60.179688 C 75.789062 61.101562 75.414062 61.992188 74.910156 62.792969 C 74.3125 63.140625 73.613281 63.292969 73.078125 63.746094 C 72.535156 64.097656 72.050781 64.742188 71.324219 64.515625 C 72.484375 62.539062 73.332031 60.390625 73.929688 58.179688 Z M 73.929688 58.179688 "/>
<path style=" stroke:none;fill-rule:nonzero;fill:rgb(89.803922%,79.607843%,47.843137%);fill-opacity:1;" d="M 19.992188 60.710938 C 20.226562 61.097656 20.476562 61.472656 20.707031 61.863281 C 21.367188 64.417969 22.273438 67.097656 24.136719 69.03125 C 24.160156 70.421875 24.085938 71.8125 24.164062 73.203125 C 24.167969 73.703125 24.414062 74.386719 25.03125 74.335938 C 26.78125 74.410156 28.539062 74.34375 30.289062 74.347656 C 29.609375 75.25 30.105469 76.316406 30.125 77.320312 C 30.144531 78.503906 30.765625 79.550781 30.945312 80.695312 C 30.453125 81.945312 29.628906 83.023438 28.976562 84.191406 C 28.320312 84.289062 27.636719 84.027344 27.007812 84.210938 C 26.636719 84.722656 26.429688 85.445312 25.722656 85.585938 C 22.371094 83.503906 19.21875 81.074219 16.515625 78.191406 C 17.710938 75.761719 18.726562 73.128906 18.492188 70.367188 C 18.3125 69.230469 19.175781 68.324219 19.351562 67.253906 C 19.324219 66.621094 18.851562 66.125 18.566406 65.585938 C 19.582031 64.164062 19.953125 62.429688 19.992188 60.710938 Z M 19.992188 60.710938 "/>
<path style=" stroke:none;fill-rule:nonzero;fill:rgb(82.352941%,69.411765%,34.901961%);fill-opacity:1;" d="M 20.707031 61.863281 C 21.605469 62.375 21.992188 63.410156 22.675781 64.148438 C 22.738281 63.996094 22.867188 63.6875 22.929688 63.535156 C 23.328125 63.777344 23.726562 64.023438 24.121094 64.265625 C 24.164062 65.851562 24.152344 67.445312 24.136719 69.03125 C 22.273438 67.097656 21.367188 64.417969 20.707031 61.863281 Z M 20.707031 61.863281 "/>
<path style=" stroke:none;fill-rule:nonzero;fill:rgb(72.941176%,56.470588%,25.098039%);fill-opacity:1;" d="M 77.601562 64.003906 C 77.898438 64.355469 78.179688 64.726562 78.414062 65.128906 C 78.570312 66.984375 78.988281 68.816406 79.007812 70.6875 C 79.054688 73.210938 79.089844 75.738281 79.210938 78.257812 C 76.398438 81.230469 73.144531 83.796875 69.589844 85.816406 C 68.242188 84.851562 66.695312 85.597656 65.464844 86.367188 C 65.695312 85.917969 66.035156 85.550781 66.414062 85.230469 C 67.167969 84.601562 67.460938 83.589844 68.25 82.992188 C 69.0625 82.261719 70.148438 81.84375 70.789062 80.933594 C 71.4375 79.535156 72.847656 78.777344 73.699219 77.527344 C 74.492188 76.386719 75.800781 75.335938 75.679688 73.8125 C 75.621094 72.503906 75.886719 71.21875 76.039062 69.929688 C 76.085938 68.988281 76.226562 68.039062 76.628906 67.179688 C 77.488281 66.355469 77.261719 65.054688 77.601562 64.003906 Z M 77.601562 64.003906 "/>
<path style=" stroke:none;fill-rule:nonzero;fill:rgb(84.705882%,75.686275%,45.098039%);fill-opacity:1;" d="M 72.414062 66.835938 C 73.15625 66.054688 74.191406 65.507812 75.300781 65.6875 C 76.066406 65.765625 76.253906 66.648438 76.628906 67.179688 C 76.226562 68.039062 76.085938 68.988281 76.039062 69.929688 C 75.886719 71.21875 75.621094 72.503906 75.675781 73.8125 C 75.800781 75.335938 74.492188 76.386719 73.699219 77.527344 C 72.847656 78.773438 71.4375 79.535156 70.789062 80.929688 C 70.335938 80.933594 69.882812 80.941406 69.429688 80.945312 C 70.570312 79.203125 71.285156 77.238281 72.191406 75.375 C 72.402344 75.066406 72.3125 74.730469 72.207031 74.410156 C 71.988281 73.875 72.261719 73.320312 72.234375 72.769531 C 72.140625 72.203125 71.902344 71.675781 71.714844 71.136719 C 70.75 70.960938 69.777344 70.710938 68.789062 70.769531 C 67.5625 70.988281 66.710938 72.019531 65.605469 72.507812 C 65.078125 72.730469 64.480469 72.785156 63.988281 73.097656 C 63.007812 73.933594 62.773438 75.390625 61.636719 76.082031 C 60.527344 76.839844 59.546875 77.761719 58.507812 78.605469 C 57.894531 79.179688 57 78.753906 56.265625 78.875 C 55.613281 79.207031 55.15625 79.8125 54.542969 80.195312 C 53.746094 80.464844 52.800781 80.351562 52.140625 80.945312 C 51.058594 81.882812 49.46875 81.613281 48.324219 82.449219 C 47.03125 83.109375 46.449219 84.570312 45.210938 85.296875 C 44.28125 85.851562 43.546875 86.664062 42.804688 87.445312 C 42.605469 87.195312 42.40625 86.953125 42.207031 86.710938 C 41.175781 87.304688 40.335938 88.261719 39.128906 88.515625 C 38.699219 88.003906 38.277344 87.378906 37.535156 87.347656 C 37.65625 87.097656 37.777344 86.847656 37.890625 86.59375 C 37.632812 86.261719 37.34375 85.933594 36.875 86.003906 C 35.746094 85.867188 34.609375 86.105469 33.476562 86.023438 C 32.707031 85.613281 32.054688 84.992188 31.59375 84.253906 C 32.460938 83.21875 32.863281 81.910156 33.589844 80.789062 C 34.019531 80.191406 34.714844 80.667969 35.261719 80.804688 C 35.484375 80.285156 35.714844 79.769531 35.9375 79.253906 C 36.246094 79.289062 36.550781 79.328125 36.859375 79.367188 C 37.59375 78.695312 38.027344 77.796875 38.3125 76.855469 C 38.804688 76.710938 39.296875 76.5625 39.789062 76.414062 C 39.78125 75.59375 40.15625 74.890625 40.746094 74.34375 C 44.871094 74.378906 48.996094 74.347656 53.121094 74.359375 C 57.863281 74.464844 62.621094 72.917969 66.398438 70.050781 C 67.191406 69.460938 67.90625 68.773438 68.589844 68.0625 C 69.921875 67.929688 71.433594 67.882812 72.414062 66.835938 Z M 72.414062 66.835938 "/>
<path style=" stroke:none;fill-rule:nonzero;fill:rgb(87.843137%,80.392157%,50.588235%);fill-opacity:1;" d="M 65.605469 72.507812 C 66.710938 72.019531 67.5625 70.992188 68.789062 70.769531 C 69.777344 70.710938 70.75 70.960938 71.714844 71.136719 C 71.902344 71.675781 72.140625 72.203125 72.234375 72.769531 C 72.261719 73.320312 71.992188 73.875 72.207031 74.414062 C 72.3125 74.730469 72.402344 75.070312 72.195312 75.375 C 71.289062 77.238281 70.574219 79.203125 69.429688 80.945312 C 69.882812 80.941406 70.335938 80.933594 70.789062 80.929688 C 70.152344 81.84375 69.0625 82.257812 68.25 82.992188 C 67.460938 83.585938 67.167969 84.601562 66.417969 85.226562 C 66.035156 85.550781 65.695312 85.914062 65.464844 86.367188 C 63.851562 87.4375 61.941406 87.925781 60.21875 88.789062 C 60.207031 88.472656 60.195312 88.152344 60.183594 87.835938 C 58.941406 88.117188 57.691406 88.355469 56.46875 88.710938 C 55.417969 88.996094 54.777344 89.957031 53.847656 90.457031 C 53.105469 90.726562 52.25 90.792969 51.699219 91.429688 C 46.023438 91.898438 40.257812 91.332031 34.808594 89.660156 C 35.417969 89.464844 36.027344 89.257812 36.625 89.027344 C 36.707031 88.363281 37.074219 87.8125 37.539062 87.347656 C 38.28125 87.378906 38.699219 88.003906 39.132812 88.515625 C 40.339844 88.261719 41.179688 87.304688 42.210938 86.707031 C 42.40625 86.953125 42.605469 87.195312 42.808594 87.445312 C 43.546875 86.664062 44.28125 85.851562 45.214844 85.296875 C 46.449219 84.566406 47.03125 83.109375 48.324219 82.449219 C 49.46875 81.613281 51.058594 81.882812 52.140625 80.945312 C 52.804688 80.351562 53.746094 80.464844 54.542969 80.195312 C 55.160156 79.8125 55.617188 79.207031 56.265625 78.875 C 57.003906 78.753906 57.898438 79.175781 58.511719 78.605469 C 59.550781 77.761719 60.53125 76.839844 61.640625 76.082031 C 62.777344 75.390625 63.011719 73.933594 63.992188 73.097656 C 64.480469 72.789062 65.078125 72.730469 65.605469 72.507812 Z M 65.605469 72.507812 "/>
<path style=" stroke:none;fill-rule:nonzero;fill:rgb(76.078431%,64.313725%,30.196078%);fill-opacity:1;" d="M 30.289062 74.351562 C 30.675781 74.351562 31.058594 74.351562 31.445312 74.355469 C 32.335938 75.402344 33.484375 76.566406 34.953125 76.566406 C 36.113281 76.449219 35.539062 75.074219 35.382812 74.351562 C 37.171875 74.347656 38.960938 74.351562 40.75 74.34375 C 40.160156 74.890625 39.785156 75.59375 39.789062 76.414062 C 39.300781 76.5625 38.804688 76.710938 38.3125 76.855469 C 38.027344 77.796875 37.597656 78.695312 36.859375 79.367188 C 36.554688 79.328125 36.246094 79.289062 35.941406 79.253906 C 35.714844 79.769531 35.488281 80.285156 35.261719 80.804688 C 34.71875 80.667969 34.023438 80.191406 33.589844 80.789062 C 32.867188 81.910156 32.460938 83.21875 31.59375 84.253906 C 31.4375 83.9375 31.285156 83.621094 31.136719 83.304688 C 30.421875 83.617188 29.707031 83.921875 28.976562 84.191406 C 29.628906 83.023438 30.453125 81.945312 30.945312 80.695312 C 30.765625 79.550781 30.144531 78.503906 30.125 77.320312 C 30.105469 76.320312 29.609375 75.25 30.289062 74.351562 Z M 30.289062 74.351562 "/>
<path style=" stroke:none;fill-rule:nonzero;fill:rgb(82.352941%,69.411765%,34.901961%);fill-opacity:1;" d="M 31.445312 74.355469 C 32.757812 74.351562 34.070312 74.351562 35.382812 74.351562 C 35.539062 75.074219 36.113281 76.449219 34.953125 76.566406 C 33.484375 76.566406 32.335938 75.402344 31.445312 74.355469 Z M 31.445312 74.355469 "/>
<path style=" stroke:none;fill-rule:nonzero;fill:rgb(80.784314%,69.019608%,32.156863%);fill-opacity:1;" d="M 28.976562 84.191406 C 29.707031 83.921875 30.421875 83.617188 31.136719 83.304688 C 31.285156 83.621094 31.4375 83.9375 31.59375 84.253906 C 32.054688 84.992188 32.710938 85.613281 33.476562 86.023438 C 34.609375 86.105469 35.746094 85.867188 36.878906 86.003906 C 37.34375 85.933594 37.632812 86.261719 37.890625 86.59375 C 37.777344 86.847656 37.660156 87.097656 37.539062 87.347656 C 37.070312 87.8125 36.707031 88.363281 36.625 89.027344 C 36.023438 89.257812 35.414062 89.464844 34.804688 89.660156 C 31.648438 88.613281 28.605469 87.242188 25.722656 85.585938 C 26.429688 85.449219 26.636719 84.722656 27.007812 84.210938 C 27.636719 84.027344 28.320312 84.289062 28.976562 84.191406 Z M 28.976562 84.191406 "/>
<path style=" stroke:none;fill-rule:nonzero;fill:rgb(82.352941%,72.941176%,41.960784%);fill-opacity:1;" d="M 65.464844 86.367188 C 66.695312 85.597656 68.242188 84.851562 69.589844 85.816406 C 64.148438 88.980469 57.988281 90.988281 51.699219 91.429688 C 52.25 90.792969 53.105469 90.726562 53.847656 90.457031 C 54.773438 89.957031 55.417969 88.996094 56.46875 88.710938 C 57.691406 88.355469 58.941406 88.117188 60.183594 87.835938 C 60.191406 88.152344 60.207031 88.472656 60.21875 88.789062 C 61.941406 87.925781 63.851562 87.4375 65.464844 86.367188 Z M 65.464844 86.367188 "/>
</g>
</svg>
