<svg width="25" height="25" viewBox="0 0 25 25" fill="none" xmlns="http://www.w3.org/2000/svg">
<path d="M23.8855 10.0858C23.4154 10.0154 22.9327 9.94782 22.451 9.88503C22.3927 9.87746 22.3453 9.83786 22.3306 9.78425C22.1082 8.97746 21.7856 8.19894 21.3718 7.47033C21.3439 7.4214 21.3492 7.35968 21.3851 7.31295C21.6813 6.92794 21.975 6.53873 22.258 6.15621C22.64 5.63971 22.5845 4.9068 22.129 4.45128L20.5487 2.8709C20.0932 2.41543 19.3603 2.35997 18.8437 2.7421C18.462 3.02442 18.0728 3.31807 17.687 3.6149C17.6404 3.65084 17.5786 3.65606 17.5296 3.62828C16.8011 3.21441 16.0225 2.8918 15.2157 2.66944C15.162 2.65474 15.1224 2.60738 15.1148 2.54888C15.0519 2.06646 14.9844 1.58384 14.9142 1.1145C14.8191 0.479103 14.2617 0 13.6175 0H11.3825C10.7383 0 10.1808 0.479102 10.0859 1.11446C10.0156 1.58389 9.94816 2.06646 9.88522 2.54898C9.87756 2.60743 9.83801 2.65469 9.7843 2.66944C8.97746 2.8919 8.19889 3.21446 7.47047 3.62828C7.4215 3.65606 7.35968 3.65069 7.313 3.6149C6.92721 3.31807 6.538 3.02442 6.15626 2.74205C5.63961 2.35997 4.90675 2.41553 4.45133 2.87095L2.87095 4.45133C2.41543 4.90689 2.36001 5.63986 2.74214 6.15631C3.02554 6.53942 3.3192 6.92853 3.61495 7.31295C3.65084 7.35958 3.65611 7.42135 3.62833 7.47033C3.21436 8.19909 2.8918 8.97761 2.66949 9.78425C2.65479 9.83781 2.60743 9.87741 2.54903 9.88508C2.06758 9.94792 1.58496 10.0154 1.11455 10.0858C0.479103 10.1808 0 10.7383 0 11.3824V13.6175C0 14.2617 0.479102 14.8192 1.11446 14.9142C1.58487 14.9846 2.06753 15.0521 2.54898 15.1149C2.60743 15.1225 2.65469 15.1621 2.66944 15.2158C2.89175 16.0224 3.21436 16.801 3.62828 17.5297C3.65606 17.5786 3.65079 17.6404 3.6149 17.687C3.31841 18.0724 3.02476 18.4616 2.7421 18.8437C2.36001 19.3602 2.41539 20.0932 2.8709 20.5487L4.45128 22.1291C4.90685 22.5846 5.63981 22.6401 6.15626 22.2579C6.53795 21.9756 6.92711 21.6819 7.31295 21.3851C7.35958 21.3492 7.4214 21.344 7.47033 21.3717C8.19884 21.7856 8.97731 22.1081 9.78425 22.3306C9.83791 22.3453 9.87751 22.3926 9.88513 22.451C9.94807 22.9334 10.0156 23.4161 10.0858 23.8854C10.1808 24.5208 10.7383 24.9999 11.3825 24.9999H13.6175C14.2617 24.9999 14.8192 24.5208 14.9141 23.8853C14.9844 23.4154 15.0519 22.9328 15.1148 22.4509C15.1224 22.3925 15.162 22.3452 15.2157 22.3304C16.0225 22.1079 16.8011 21.7853 17.5295 21.3715C17.5785 21.3438 17.6403 21.3491 17.6869 21.3849C18.0727 21.6817 18.462 21.9754 18.8436 22.2577C19.3601 22.6398 20.0931 22.5844 20.5486 22.1289L22.129 20.5485C22.5845 20.093 22.6399 19.3601 22.2579 18.8435C21.9749 18.4612 21.6812 18.072 21.385 17.6869C21.3491 17.6402 21.3438 17.5785 21.3717 17.5295C21.7856 16.8008 22.1081 16.0222 22.3305 15.2156C22.3453 15.1619 22.3926 15.1223 22.451 15.1147C22.9326 15.0519 23.4153 14.9844 23.8855 14.914C24.5209 14.819 25 14.2616 25 13.6174V11.3823C25 10.7383 24.5209 10.1807 23.8855 10.0858ZM23.8326 13.6176C23.8326 13.6884 23.7812 13.7494 23.7128 13.7597C23.2499 13.829 22.7746 13.8954 22.3001 13.9574C21.7748 14.0259 21.3451 14.398 21.2051 14.9056C21.0084 15.6194 20.7229 16.3083 20.3567 16.9531C20.0963 17.4116 20.1368 17.9791 20.4599 18.399C20.7517 18.7783 21.0409 19.1616 21.3194 19.5381C21.3605 19.5936 21.3537 19.6733 21.3037 19.7234L19.7232 21.3038C19.6731 21.3539 19.5935 21.3605 19.538 21.3196C19.1622 21.0415 18.7788 20.7523 18.3989 20.46C17.979 20.1369 17.4115 20.0964 16.9531 20.3567C16.3083 20.7229 15.6194 21.0084 14.9055 21.2052C14.398 21.3451 14.0259 21.7749 13.9573 22.3002C13.8954 22.7749 13.8289 23.2502 13.7596 23.7129C13.7494 23.7812 13.6883 23.8327 13.6175 23.8327H11.3825C11.3117 23.8327 11.2506 23.7812 11.2404 23.7129C11.1713 23.2507 11.1047 22.7754 11.0427 22.3003C10.9742 21.7749 10.602 21.3452 10.0945 21.2053C9.38054 21.0085 8.69162 20.723 8.04689 20.3567C7.84587 20.2426 7.62384 20.1863 7.40255 20.1863C7.11915 20.1863 6.83688 20.2786 6.60119 20.4601C6.22115 20.7524 5.83785 21.0416 5.46202 21.3197C5.40646 21.3606 5.32691 21.3539 5.27687 21.3039L3.69644 19.7235C3.64635 19.6734 3.63951 19.5938 3.68062 19.5383C3.95899 19.162 4.24815 18.7787 4.54019 18.3991C4.86319 17.9792 4.90372 17.4118 4.64342 16.9534C4.27706 16.3084 3.99166 15.6195 3.79493 14.9058C3.65504 14.3983 3.22525 14.0261 2.69996 13.9575C2.22574 13.8957 1.75039 13.8291 1.28716 13.7599C1.21885 13.7496 1.16739 13.6886 1.16739 13.6178V11.3827C1.16739 11.3119 1.21885 11.2508 1.28716 11.2405C1.75039 11.1713 2.22569 11.1048 2.69986 11.0429C3.2252 10.9744 3.65499 10.6022 3.79488 10.0946C3.99151 9.38098 4.27701 8.69206 4.64337 8.04709C4.90372 7.58864 4.86319 7.02116 4.54019 6.60133C4.24893 6.22262 3.95972 5.83942 3.68062 5.46217C3.63961 5.40665 3.64639 5.32696 3.69644 5.27696L5.27677 3.69654C5.32677 3.64644 5.40641 3.63975 5.46192 3.68072C5.83776 3.95875 6.22106 4.24796 6.60109 4.54034C7.02101 4.86329 7.58844 4.90387 8.04694 4.64347C8.69162 4.27725 9.38054 3.99176 10.0944 3.79498C10.602 3.65509 10.9742 3.2253 11.0427 2.69996C11.1048 2.22481 11.1712 1.74952 11.2404 1.28721C11.2506 1.219 11.3117 1.16748 11.3825 1.16748H13.6176C13.6884 1.16748 13.7495 1.21895 13.7597 1.28726C13.8289 1.74942 13.8953 2.22466 13.9574 2.69996C14.0259 3.2253 14.3981 3.65509 14.9056 3.79498C15.6195 3.99176 16.3084 4.27725 16.9532 4.64347C17.4116 4.90372 17.9791 4.86329 18.3989 4.54024C18.7789 4.24791 19.1622 3.9587 19.538 3.68067C19.5935 3.63956 19.6732 3.64635 19.7233 3.69649L21.3037 5.27687C21.3538 5.32696 21.3605 5.4066 21.3195 5.46207C21.0409 5.83873 20.7517 6.22194 20.4599 6.60123C20.1369 7.0212 20.0964 7.58869 20.3568 8.04713C20.723 8.69191 21.0085 9.38078 21.2053 10.0946C21.3452 10.6022 21.775 10.9743 22.3002 11.0428C22.7746 11.1047 23.2499 11.1712 23.713 11.2405C23.7813 11.2507 23.8328 11.3118 23.8328 11.3826V13.6176H23.8326Z" fill="black"/>
<path d="M12.5002 7.07349C9.50801 7.07349 7.07373 9.50777 7.07373 12.5C7.07373 15.4922 9.50801 17.9264 12.5002 17.9264C15.4924 17.9264 17.9267 15.4922 17.9267 12.5C17.9267 9.50777 15.4924 7.07349 12.5002 7.07349ZM12.5002 16.759C10.1517 16.759 8.24116 14.8484 8.24116 12.5C8.24116 10.1515 10.1518 8.24092 12.5002 8.24092C14.8486 8.24092 16.7592 10.1515 16.7592 12.5C16.7592 14.8484 14.8487 16.759 12.5002 16.759Z" fill="black"/>
</svg>
