<svg width="18" height="18" viewBox="0 0 18 18" fill="none" xmlns="http://www.w3.org/2000/svg">
<path d="M2.22817 6.77271C0.996724 6.77271 0 7.76887 0 8.99975C0 10.2306 0.995601 11.2274 2.22817 11.2274C3.45737 11.2274 4.45522 10.2323 4.45522 8.99975C4.45522 7.76887 3.45737 6.77271 2.22817 6.77271ZM9.1154 6.77271C7.88676 6.77271 6.88723 7.76831 6.88723 8.99919C6.88723 10.2301 7.88563 11.2268 9.1154 11.2268C10.3452 11.2268 11.3447 10.2318 11.3447 8.99919C11.3436 7.76887 10.3452 6.77271 9.1154 6.77271ZM15.7735 6.77271C14.5426 6.77271 13.5448 7.76887 13.5448 9.00031C13.5448 10.2301 14.5409 11.2268 15.7735 11.2268C17.0022 11.2268 18 10.2318 18 9.00031C18 7.76887 17.0022 6.77271 15.7735 6.77271Z" fill="#F3F3F3"/>
</svg>
